<svg xmlns="http://www.w3.org/2000/svg" width="2048" height="2048" viewBox="0 0 2048 2048" version="1.1"><path d="M 1025.500 462 L 1027.500 462.859 1025.750 462.930 L 1024 463 1024 718.918 L 1024 974.836 1024.607 976.418 L 1025.214 978 1161.673 978 L 1298.131 978 1300.066 976.965 L 1302 975.930 1302 976.965 L 1302 978 1300.833 978 L 1299.667 978 1300.166 978.499 L 1300.665 978.998 1305.422 976.590 L 1310.179 974.181 1308.811 973.841 L 1307.443 973.500 1309.395 971.576 L 1311.347 969.653 1310.705 971.326 L 1310.063 973 1311.031 973 L 1312 973 1312 971.367 L 1312 969.735 1313.750 968.107 L 1315.500 966.479 1316.750 964.253 L 1318 962.027 1318 955.097 L 1318 948.167 1317.213 947.833 L 1316.426 947.500 1313.645 941.762 L 1310.864 936.023 1309.182 935.042 L 1307.500 934.061 1308.809 934.030 L 1310.118 934 1309.490 932.984 L 1308.862 931.967 1307.776 932.638 L 1306.691 933.309 1307.276 932.363 L 1307.860 931.417 1305.031 925.564 L 1302.202 919.711 1301.717 921.606 L 1301.232 923.500 1301.116 920.750 L 1301 918 1300 918 L 1299 918 1299 916 L 1299 914 1298 914 L 1297 914 1297 912 L 1297 910 1296 910 L 1295 910 1295 908.589 L 1295 907.178 1291.923 904.589 L 1288.847 902 1290.173 901.967 L 1291.500 901.933 1289.139 899.967 L 1286.778 898 1287.948 898 L 1289.118 898 1288.490 896.984 L 1287.862 895.967 1287.098 896.440 L 1286.333 896.912 1286.333 895.557 L 1286.333 894.202 1283.557 888.527 L 1280.781 882.853 1279.391 882.320 L 1278 881.786 1278 879.893 L 1278 878 1277 878 L 1276 878 1276 876.429 L 1276 874.857 1274.619 873.476 L 1273.238 872.095 1272.619 872.714 L 1272 873.333 1272 872.167 L 1272 871 1273.194 871 L 1274.389 871 1271 868.500 L 1267.611 866 1269.556 865.921 L 1271.500 865.842 1270.250 865.338 L 1269 864.833 1269 862.917 L 1269 861 1268.237 861 L 1267.474 861 1266.451 858.750 L 1265.427 856.500 1264.380 856.694 L 1263.333 856.889 1263.333 855.556 L 1263.333 854.222 1261.685 850.749 L 1260.037 847.276 1258.518 846.015 L 1257 844.755 1257 843.434 L 1257 842.113 1254.777 840.557 L 1252.555 839 1254.027 838.932 L 1255.500 838.865 1253.250 837.780 L 1251 836.694 1251 835.847 L 1251 835 1252.059 835 L 1253.118 835 1252.490 833.984 L 1251.862 832.967 1250.906 833.558 L 1249.950 834.149 1250.094 833.324 L 1250.237 832.500 1250.048 830.500 L 1249.859 828.500 1249 830.500 L 1248.141 832.500 1248.070 828.750 L 1248 825 1247 825 L 1246 825 1246 823.367 L 1246 821.735 1244.203 820.117 L 1242.407 818.500 1239.653 812.796 L 1236.898 807.093 1234.199 804.965 L 1231.500 802.837 1233.202 803.368 L 1234.904 803.900 1233.068 800.700 L 1231.232 797.500 1230.116 797.750 L 1229 798 1229.118 797.250 L 1229.237 796.500 1229.048 794.500 L 1228.859 792.500 1228 794.500 L 1227.141 796.500 1227.070 792.750 L 1227 789 1226 789 L 1225 789 1225 787.221 L 1225 785.442 1223 784 L 1221 782.558 1221 780.779 L 1221 779 1220 779 L 1219 779 1219 777.557 L 1219 776.113 1216.777 774.557 L 1214.555 773 1215.837 773 L 1217.118 773 1216.490 771.984 L 1215.862 770.967 1215.138 771.414 L 1214.415 771.861 1214.283 770.101 L 1214.150 768.341 1212.191 764.921 L 1210.232 761.500 1209.116 761.750 L 1208 762 1208.250 761.199 L 1208.500 760.399 1207.063 756.699 L 1205.627 753 1204.813 753 L 1204 753 1204 751.455 L 1204 749.909 1201.606 747.515 L 1199.212 745.121 1198.606 745.727 L 1198 746.333 1198 745.167 L 1198 744 1199.250 743.932 L 1200.500 743.865 1198.434 742.861 L 1196.367 741.858 1196.797 738.929 L 1197.227 736 1195.863 735.882 L 1194.500 735.763 1193.962 735.811 L 1193.425 735.858 1193.207 733.235 L 1192.990 730.612 1192.193 730.056 L 1191.396 729.500 1189.716 725.888 L 1188.037 722.276 1186.518 721.015 L 1185 719.755 1185 718.434 L 1185 717.113 1182.777 715.557 L 1180.555 714 1182.027 713.959 L 1183.500 713.919 1180 710.826 L 1176.500 707.732 1178.165 708.302 L 1179.831 708.872 1177.665 704.686 L 1175.500 700.500 1173.750 698.883 L 1172 697.265 1172 695.633 L 1172 694 1171 694 L 1170 694 1170 692 L 1170 690 1169 690 L 1168 690 1168 688.589 L 1168 687.178 1164.923 684.589 L 1161.847 682 1163.173 681.967 L 1164.500 681.933 1162.139 679.967 L 1159.778 678 1161.139 677.978 L 1162.500 677.956 1160 675.885 L 1157.500 673.814 1159.391 674.430 L 1161.283 675.046 1160.028 673.534 L 1158.773 672.022 1157.732 672.666 L 1156.691 673.309 1157.262 672.386 L 1157.832 671.462 1156.024 667.552 L 1154.216 663.642 1153.724 665.571 L 1153.232 667.500 1153.116 664.750 L 1153 662 1152 662 L 1151 662 1151 660 L 1151 658 1150 658 L 1149 658 1149 656 L 1149 654 1148 654 L 1147 654 1147 652.589 L 1147 651.178 1144.016 648.667 L 1141.032 646.156 1141.995 645.828 L 1142.959 645.500 1140.662 641 L 1138.366 636.500 1137.109 636.775 L 1135.851 637.050 1136.356 636.234 L 1136.860 635.417 1134.086 629.679 L 1131.313 623.940 1129.263 622.030 L 1127.213 620.120 1126.606 620.727 L 1126 621.333 1126 620.167 L 1126 619 1127.250 618.932 L 1128.500 618.865 1126.250 617.780 L 1124 616.694 1124 615.847 L 1124 615 1125.059 615 L 1126.118 615 1125.490 613.984 L 1124.862 612.967 1124.138 613.414 L 1123.415 613.861 1123.252 611.696 L 1123.089 609.530 1122.044 609.181 L 1121 608.833 1121 606.917 L 1121 605 1120 605 L 1119 605 1119 603 L 1119 601 1117.750 600.882 L 1116.500 600.763 1115.917 600.826 L 1115.333 600.889 1115.333 599.545 L 1115.333 598.202 1112.575 592.564 L 1109.817 586.926 1107.349 585.309 L 1104.881 583.692 1105.856 583.089 L 1106.832 582.486 1104.863 578.191 L 1102.895 573.897 1101.447 573.341 L 1100 572.786 1100 570.893 L 1100 569 1099 569 L 1098 569 1098 567.367 L 1098 565.735 1096.199 564.117 L 1094.398 562.500 1092.623 558.690 L 1090.849 554.879 1089.502 554.362 L 1088.155 553.845 1087.554 552.281 L 1086.954 550.717 1088.727 552.091 L 1090.500 553.466 1088.921 551.483 L 1087.343 549.500 1084.648 543.853 L 1081.954 538.207 1080.477 536.981 L 1079 535.755 1079 534.378 L 1079 533 1078 533 L 1077 533 1077 531 L 1077 529 1076 529 L 1075 529 1075 527 L 1075 525 1073.750 524.882 L 1072.500 524.763 1071.676 524.906 L 1070.851 525.050 1071.489 524.018 L 1072.127 522.986 1070.569 522.388 L 1069.011 521.790 1069.659 520.744 L 1070.306 519.697 1068.462 518.348 L 1066.618 517 1067.868 517 L 1069.118 517 1068.490 515.984 L 1067.862 514.967 1067.098 515.440 L 1066.333 515.912 1066.333 514.557 L 1066.333 513.202 1063.603 507.620 L 1060.872 502.039 1059.963 501.477 L 1059.054 500.915 1057.315 497.208 L 1055.576 493.500 1054.407 492.298 L 1053.238 491.095 1052.619 491.714 L 1052 492.333 1052 491.167 L 1052 490 1053.155 490 L 1054.310 490 1052.862 488.250 L 1051.414 486.500 1049.964 483.500 L 1048.514 480.500 1046.757 478.883 L 1045 477.265 1045 475.633 L 1045 474 1044.237 474 L 1043.474 474 1042.451 471.750 L 1041.427 469.500 1040.213 469.750 L 1039 470 1039.250 468.750 L 1039.500 467.500 1038.176 467.775 L 1036.851 468.050 1037.442 467.094 L 1038.033 466.138 1037.016 465.510 L 1036 464.882 1036 466.163 L 1036 467.445 1034.443 465.223 L 1032.887 463 1030.443 463 L 1028 463 1028 462 L 1028 461 1025.750 461.070 L 1023.500 461.141 1025.500 462 M 737.454 973.797 L 739.394 976.093 742.465 977.550 L 745.535 979.007 885.017 978.750 L 1024.500 978.493 884.736 978.246 L 744.973 978 742.736 976.750 L 740.500 975.500 738.007 973.500 L 735.514 971.500 737.454 973.797 M 1024 1387.500 L 1024 1592 1315.099 1592 L 1606.198 1592 1609.599 1590.386 L 1613 1588.772 1613 1587.886 L 1613 1587 1613.857 1587 L 1614.714 1587 1619.857 1581.857 L 1625 1576.714 1625 1575.357 L 1625 1574 1626 1574 L 1627 1574 1627 1572.367 L 1627 1570.735 1628.797 1569.117 L 1630.593 1567.500 1633.393 1562 L 1636.192 1556.500 1639.470 1550.218 L 1642.748 1543.936 1644.374 1542.139 L 1646 1540.343 1646 1539.171 L 1646 1538 1647 1538 L 1648 1538 1648 1536 L 1648 1534 1649 1534 L 1650 1534 1650 1532.241 L 1650 1530.481 1651.950 1529.263 L 1653.901 1528.045 1654.562 1524.522 L 1655.223 1521 1656.111 1521 L 1657 1521 1657 1519.622 L 1657 1518.245 1658.512 1516.990 L 1660.024 1515.735 1663 1509.500 L 1665.976 1503.265 1667.488 1502.010 L 1669 1500.755 1669 1499.378 L 1669 1498 1670 1498 L 1671 1498 1671 1496.122 L 1671 1494.245 1672.294 1493.171 L 1673.589 1492.096 1674.981 1488.548 L 1676.373 1485 1677.187 1485 L 1678 1485 1678 1483.367 L 1678 1481.735 1679.797 1480.117 L 1681.593 1478.500 1684.320 1472.853 L 1687.046 1467.207 1688.523 1465.981 L 1690 1464.755 1690 1463.823 L 1690 1462.890 1691.950 1458.609 L 1693.901 1454.327 1695.450 1453.041 L 1697 1451.755 1697 1450.378 L 1697 1449 1698 1449 L 1699 1449 1699 1447 L 1699 1445 1700 1445 L 1701 1445 1701 1443.367 L 1701 1441.735 1702.797 1440.117 L 1704.593 1438.500 1707.390 1433 L 1710.187 1427.500 1712.455 1423.232 L 1714.723 1418.964 1716.216 1417.232 L 1717.709 1415.500 1719.099 1412.250 L 1720.488 1409 1721.244 1409 L 1722 1409 1722 1407.367 L 1722 1405.735 1723.801 1404.117 L 1725.602 1402.500 1727.375 1398.692 L 1729.149 1394.884 1727.952 1393.442 L 1726.755 1392 1721.378 1392 L 1716 1392 1716 1391 L 1716 1390 1712.559 1390 L 1709.118 1390 1708.500 1389 L 1707.882 1388 1705.441 1388 L 1703 1388 1703 1387 L 1703 1386 1699 1386 L 1695 1386 1695 1385 L 1695 1384 1693.030 1384 L 1691.061 1384 1687.466 1381.981 L 1683.871 1379.962 1683.051 1380.468 L 1682.232 1380.975 1675.866 1377.737 L 1669.500 1374.500 1669.167 1373.750 L 1668.833 1373 1666.917 1373 L 1665 1373 1665 1372 L 1665 1371 1663.221 1371 L 1661.442 1371 1660 1369 L 1658.558 1367 1657.402 1367 L 1656.245 1367 1654.914 1365.396 L 1653.582 1363.792 1651.541 1362.853 L 1649.500 1361.914 1647.257 1360.618 L 1645.014 1359.322 1643.178 1357.661 L 1641.343 1356 1640.410 1356 L 1639.477 1356 1623.738 1340.239 L 1608 1324.477 1608 1323.543 L 1608 1322.609 1605.374 1319.868 L 1602.748 1317.128 1601.417 1314.814 L 1600.086 1312.500 1599.147 1310.459 L 1598.208 1308.418 1596.604 1307.086 L 1595 1305.755 1595 1304.378 L 1595 1303 1594 1303 L 1593 1303 1593 1301 L 1593 1299 1592 1299 L 1591 1299 1591 1297.083 L 1591 1295.167 1590.250 1294.833 L 1589.500 1294.500 1585.304 1286.191 L 1581.108 1277.881 1581.622 1276.542 L 1582.136 1275.202 1581.068 1274.542 L 1580 1273.882 1580 1271.441 L 1580 1269 1579 1269 L 1578 1269 1578 1266 L 1578 1263 1577 1263 L 1576 1263 1576 1260.559 L 1576 1258.118 1575 1257.500 L 1574 1256.882 1574 1253.500 L 1574 1250.118 1573 1249.500 L 1572 1248.882 1572 1244.441 L 1572 1240 1571 1240 L 1570 1240 1570 1230.500 L 1570 1221 1569 1221 L 1568 1221 1568 1209.059 L 1568 1197.118 1569 1196.500 L 1570 1195.882 1570 1189.441 L 1570 1183 1297 1183 L 1024 1183 1024 1387.500" stroke="none" fill="#2081e2" fill-rule="evenodd"/><path d="M 1018.500 462 L 1017.882 463 1015.842 463 L 1013.802 463 1011 466 L 1008.198 469 1006.678 469 L 1005.159 469 1004.445 472.250 L 1003.731 475.500 1001.866 476.807 L 1000 478.113 1000 480.057 L 1000 482 999 482 L 998 482 998 483.378 L 998 484.755 996.523 485.981 L 995.046 487.207 992.354 492.853 L 989.663 498.500 987.892 500.500 L 986.121 502.500 985.989 503.500 L 985.857 504.500 984.229 508 L 982.602 511.500 980.801 513.117 L 979 514.735 979 516.367 L 979 518 978 518 L 977 518 977 520 L 977 522 976 522 L 975 522 975 523.171 L 975 524.343 973.361 526.153 L 971.723 527.964 969.455 532.232 L 967.187 536.500 964.390 542 L 961.593 547.500 959.797 549.117 L 958 550.735 958 552.367 L 958 554 957 554 L 956 554 956 556 L 956 558 955 558 L 954 558 954 559.759 L 954 561.519 952 562.768 L 950 564.017 950 565.063 L 950 566.110 948.003 570.494 L 946.005 574.879 945 575.500 L 943.995 576.121 942.047 580.397 L 940.099 584.673 938.550 585.959 L 937 587.245 937 588.622 L 937 590 936 590 L 935 590 935 592 L 935 594 934 594 L 933 594 933 596 L 933 598 932.019 598 L 931.038 598 930.411 600.500 L 929.783 603 928.892 603 L 928 603 928 605 L 928 607 927 607 L 926 607 926 608.893 L 926 610.786 924.548 611.343 L 923.095 611.901 921.050 616.390 L 919.005 620.879 918 621.500 L 916.995 622.121 914.997 626.506 L 913 630.890 913 631.790 L 913 632.690 911 634.500 L 909 636.310 909 637.655 L 909 639 908 639 L 907 639 907 641 L 907 643 906 643 L 905 643 905 644.779 L 905 646.558 903 648 L 901 649.442 901 651.221 L 901 653 900.236 653 L 899.472 653 897.677 656.750 L 895.883 660.500 893.580 664.768 L 891.277 669.036 889.784 670.768 L 888.291 672.500 886.901 675.750 L 885.512 679 884.756 679 L 884 679 884 680.779 L 884 682.558 882 684 L 880 685.442 880 687.221 L 880 689 879.117 689 L 878.233 689 877.508 691.250 L 876.784 693.500 876.934 694.376 L 877.084 695.253 875.042 696.683 L 873 698.113 873 700.057 L 873 702 872.244 702 L 871.488 702 870.102 705.250 L 868.715 708.500 867.062 710.500 L 865.409 712.500 863.961 715.500 L 862.514 718.500 860.757 720.117 L 859 721.735 859 722.966 L 859 724.198 857.301 727.849 L 855.602 731.500 853.801 733.117 L 852 734.735 852 736.367 L 852 738 851 738 L 850 738 850 740 L 850 742 849 742 L 848 742 848 743.378 L 848 744.755 846.450 746.041 L 844.901 747.327 843.039 751.414 L 841.178 755.500 841.028 756.500 L 840.879 757.500 839.144 759.500 L 837.409 761.500 835.961 764.500 L 834.514 767.500 832.757 769.117 L 831 770.735 831 772.367 L 831 774 830 774 L 829 774 829 776 L 829 778 828 778 L 827 778 827 779.378 L 827 780.755 825.396 782.086 L 823.792 783.418 822.730 785.959 L 821.668 788.500 821.500 789 L 821.332 789.500 820.228 792.153 L 819.123 794.806 818.059 795.464 L 816.995 796.121 814.950 800.610 L 812.905 805.099 811.452 805.657 L 810 806.214 810 808.107 L 810 810 809 810 L 808 810 808 812 L 808 814 807 814 L 806 814 806 815.893 L 806 817.786 804.500 818.362 L 803 818.937 803 820.969 L 803 823 802 823 L 801 823 801 825 L 801 827 800 827 L 799 827 799 828.893 L 799 830.786 797.581 831.331 L 796.162 831.875 793 838.500 L 789.838 845.125 788.419 845.669 L 787 846.214 787 848.107 L 787 850 785.893 850 L 784.786 850 785.326 851.406 L 785.865 852.812 783.933 854.561 L 782 856.310 782 857.655 L 782 859 781 859 L 780 859 780 861 L 780 863 779 863 L 778 863 778 864.633 L 778 866.265 776.203 867.883 L 774.407 869.500 771.607 875 L 768.808 880.500 765.422 887 L 762.035 893.500 760.518 894.610 L 759 895.720 759 897.360 L 759 899 758 899 L 757 899 757 900.779 L 757 902.558 755 904 L 753 905.442 753 907.137 L 753 908.833 752.250 909.167 L 751.500 909.500 749.314 913.500 L 747.128 917.500 744.076 923.617 L 741.024 929.735 739.512 930.990 L 738 932.245 738 933.622 L 738 935 737 935 L 736 935 736 937 L 736 939 735 939 L 734 939 734 940.779 L 734 942.558 732.031 943.978 L 730.062 945.397 730.639 947.699 L 731.217 950 730.108 950 L 729 950 729 955.441 L 729 960.882 730.041 961.525 L 731.081 962.168 730.542 963.869 L 730.002 965.570 735.251 970.539 L 740.500 975.509 742.736 976.754 L 744.973 978 884.736 978 L 1024.500 978 1024.244 720.500 L 1023.989 463 1025.744 462.930 L 1027.500 462.859 1025.500 462 L 1023.500 461.141 1021.309 461.070 L 1019.118 461 1018.500 462 M 224 1184 L 224 1185 222.632 1185 L 221.263 1185 216.632 1189.632 L 212 1194.263 212 1200.978 L 212 1207.693 213.521 1210.741 L 215.041 1213.790 216.521 1215.017 L 218 1216.245 218 1217.622 L 218 1219 219 1219 L 220 1219 220 1221 L 220 1223 221 1223 L 222 1223 222 1224.633 L 222 1226.265 223.797 1227.883 L 225.593 1229.500 228.393 1235 L 231.192 1240.500 234.470 1246.782 L 237.748 1253.064 239.374 1254.861 L 241 1256.657 241 1257.829 L 241 1259 242 1259 L 243 1259 243 1260.633 L 243 1262.265 244.866 1263.884 L 246.732 1265.502 247.445 1268.751 L 248.159 1272 249.079 1272 L 250 1272 250 1273.779 L 250 1275.558 252 1277 L 254 1278.442 254 1280.221 L 254 1282 254.813 1282 L 255.627 1282 257.019 1285.548 L 258.411 1289.096 259.718 1290.181 L 261.024 1291.265 264.262 1297.725 L 267.500 1304.185 268.487 1306.092 L 269.474 1308 270.237 1308 L 271 1308 271 1310 L 271 1312 272 1312 L 273 1312 273 1313.779 L 273 1315.558 275 1317 L 277 1318.442 277 1320.221 L 277 1322 277.756 1322 L 278.512 1322 279.898 1325.250 L 281.285 1328.500 283.082 1330.500 L 284.879 1332.500 284.875 1333 L 284.871 1333.500 285.584 1335.500 L 286.298 1337.500 288.007 1339.500 L 289.715 1341.500 291.102 1344.750 L 292.488 1348 293.244 1348 L 294 1348 294 1349.779 L 294 1351.558 296 1353 L 298 1354.442 298 1356.221 L 298 1358 298.764 1358 L 299.528 1358 301.325 1361.750 L 303.122 1365.500 306.435 1371.782 L 309.748 1378.064 311.228 1379.782 L 312.709 1381.500 314.099 1384.750 L 315.488 1388 316.244 1388 L 317 1388 317 1389.943 L 317 1391.887 318.866 1393.193 L 320.731 1394.500 321.445 1397.750 L 322.159 1401 323.079 1401 L 324 1401 324 1402.779 L 324 1404.558 326 1406 L 328 1407.442 328 1409.221 L 328 1411 329 1411 L 330 1411 330 1412.378 L 330 1413.755 331.512 1415.010 L 333.024 1416.265 336.076 1422.383 L 339.128 1428.500 341.314 1432.500 L 343.500 1436.500 344.250 1436.833 L 345 1437.167 345 1438.863 L 345 1440.558 347 1442 L 349 1443.442 349 1445.221 L 349 1447 349.756 1447 L 350.512 1447 351.898 1450.250 L 353.285 1453.500 354.993 1455.500 L 356.702 1457.500 357.515 1459.500 L 358.327 1461.500 358.500 1462 L 358.673 1462.500 359.485 1464.500 L 360.298 1466.500 362.007 1468.500 L 363.715 1470.500 365.102 1473.750 L 366.488 1477 367.244 1477 L 368 1477 368 1478.779 L 368 1480.558 370 1482 L 372 1483.442 372 1485.221 L 372 1487 372.764 1487 L 373.528 1487 375.323 1490.750 L 377.117 1494.500 379.420 1498.768 L 381.723 1503.036 383.190 1504.768 L 384.657 1506.500 387.438 1512.323 L 390.219 1518.147 391.609 1518.680 L 393 1519.214 393 1521.107 L 393 1523 394.044 1523 L 395.088 1523 394.886 1524.250 L 394.685 1525.500 395.523 1527.500 L 396.361 1529.500 398.181 1531.117 L 400 1532.735 400 1534.367 L 400 1536 400.756 1536 L 401.512 1536 402.901 1539.250 L 404.291 1542.500 405.772 1544.218 L 407.252 1545.936 410.565 1552.218 L 413.878 1558.500 415.675 1562.250 L 417.472 1566 418.236 1566 L 419 1566 419 1567.779 L 419 1569.558 421 1571 L 423 1572.442 423 1574.221 L 423 1576 424 1576 L 425 1576 425.008 1577.250 L 425.017 1578.500 431.427 1585.250 L 437.838 1592 730.919 1592 L 1024 1592 1024 1387.500 L 1024 1183 624 1183 L 224 1183 224 1184" stroke="none" fill="#1f73ca" fill-rule="evenodd"/><path d="M 500.735 47.599 L 500.127 48.207 488.813 49.095 L 477.500 49.983 470.500 50.937 L 463.500 51.891 456.500 52.916 L 449.500 53.941 441.500 55.585 L 433.500 57.229 429 58.179 L 424.500 59.129 420.744 59.670 L 416.987 60.211 416.435 61.106 L 415.882 62 413 62 L 410.118 62 409.500 63 L 408.882 64 406 64 L 403.118 64 402.500 65 L 401.882 66 399.427 66 L 396.973 66 395.236 66.910 L 393.500 67.821 384.500 70.504 L 375.500 73.188 372.500 74.195 L 369.500 75.202 367 76.235 L 364.500 77.268 362 78.268 L 359.500 79.268 357.500 80 L 355.500 80.732 352.500 82 L 349.500 83.268 347.500 84.029 L 345.500 84.790 340 87.302 L 334.500 89.814 329 92.123 L 323.500 94.431 316.500 98.075 L 309.500 101.718 300.500 106.500 L 291.500 111.281 288.846 113.140 L 286.191 115 285.633 115 L 285.076 115 268.788 125.620 L 252.500 136.240 245.500 141.559 L 238.500 146.879 233.500 150.735 L 228.500 154.591 226.088 156.546 L 223.676 158.500 210.588 170.132 L 197.500 181.764 184.953 194.632 L 172.405 207.500 165.453 215.601 L 158.500 223.701 155 228.038 L 151.500 232.374 144.960 240.937 L 138.421 249.500 132.391 258.500 L 126.362 267.500 120.279 277 L 114.197 286.500 110.347 293.500 L 106.497 300.500 105 303.500 L 103.503 306.500 102.941 307 L 102.379 307.500 96.690 319.178 L 91 330.856 91 331.383 L 91 331.910 87.891 338.705 L 84.783 345.500 83.891 347.750 L 83 350 82.134 352.250 L 81.268 354.500 80.134 357.250 L 79 360 77.866 362.750 L 76.732 365.500 75.917 367.500 L 75.101 369.500 73.673 374 L 72.246 378.500 70.022 386 L 67.797 393.500 67.013 395.500 L 66.228 397.500 65.010 402 L 63.792 406.500 62.896 408.797 L 62 411.094 62 413.488 L 62 415.882 61.106 416.435 L 60.211 416.987 59.670 420.744 L 59.129 424.500 58.128 429 L 57.127 433.500 55.563 441.500 L 54 449.500 52.927 456 L 51.855 462.500 50.931 470 L 50.006 477.500 48.792 488.500 L 47.579 499.500 47.597 1023.500 L 47.616 1547.500 48.836 1558.500 L 50.057 1569.500 50.935 1576 L 51.813 1582.500 52.877 1589.500 L 53.941 1596.500 55.585 1604.500 L 57.229 1612.500 58.179 1617 L 59.129 1621.500 59.670 1625.256 L 60.211 1629.013 61.106 1629.565 L 62 1630.118 62 1632.512 L 62 1634.906 62.896 1637.203 L 63.792 1639.500 65.030 1644 L 66.268 1648.500 68.044 1654 L 69.819 1659.500 72.445 1668 L 75.070 1676.500 75.934 1678.500 L 76.798 1680.500 78.016 1684 L 79.234 1687.500 80.617 1690.750 L 82 1694 83.500 1697.500 L 85 1701 86.394 1704.250 L 87.789 1707.500 89.996 1712.500 L 92.203 1717.500 97.297 1728 L 102.391 1738.500 102.947 1739 L 103.503 1739.500 105.002 1742.498 L 106.500 1745.495 110.918 1753.498 L 115.336 1761.500 119.168 1767.195 L 123 1772.890 123 1773.395 L 123 1773.899 130.710 1785.199 L 138.419 1796.500 144.960 1805.063 L 151.500 1813.626 155 1817.947 L 158.500 1822.267 165.854 1830.884 L 173.207 1839.500 186.854 1853.374 L 200.500 1867.248 211.500 1876.908 L 222.500 1886.567 230 1892.590 L 237.500 1898.612 245 1904.138 L 252.500 1909.664 260 1914.700 L 267.500 1919.735 277 1925.757 L 286.500 1931.778 293.500 1935.641 L 300.500 1939.503 303.500 1941 L 306.500 1942.497 307 1943.052 L 307.500 1943.606 320.111 1949.803 L 332.721 1956 333.333 1956 L 333.945 1956 339.723 1958.603 L 345.500 1961.207 347.750 1962.103 L 350 1963 352.500 1964 L 355 1965 357.250 1965.866 L 359.500 1966.732 362.250 1967.866 L 365 1969 367.250 1969.970 L 369.500 1970.940 380.446 1974.470 L 391.393 1978 392.710 1978 L 394.027 1978 395.764 1978.903 L 397.500 1979.805 402 1981.007 L 406.500 1982.208 408.797 1983.104 L 411.094 1984 413.488 1984 L 415.882 1984 416.500 1985 L 417.118 1986 420.359 1986 L 423.600 1986 424.550 1986.898 L 425.500 1987.795 429.500 1988.333 L 433.500 1988.871 438 1989.841 L 442.500 1990.811 451.544 1992.377 L 460.588 1993.942 469.044 1994.995 L 477.500 1996.049 489 1997.269 L 500.500 1998.489 1023.500 1998.455 L 1546.500 1998.421 1557.500 1997.268 L 1568.500 1996.114 1576.956 1995.028 L 1585.412 1993.942 1594.456 1992.377 L 1603.500 1990.811 1608 1989.841 L 1612.500 1988.871 1616.500 1988.333 L 1620.500 1987.795 1621.450 1986.898 L 1622.400 1986 1625.641 1986 L 1628.882 1986 1629.500 1985 L 1630.118 1984 1632.512 1984 L 1634.906 1984 1637.203 1983.104 L 1639.500 1982.208 1643.500 1981.113 L 1647.500 1980.018 1656 1977.419 L 1664.500 1974.819 1670.500 1972.862 L 1676.500 1970.906 1678.236 1969.953 L 1679.973 1969 1681.500 1969 L 1683.027 1969 1684.764 1968.117 L 1686.500 1967.233 1689 1966.243 L 1691.500 1965.253 1696 1963.228 L 1700.500 1961.203 1705.293 1959.077 L 1710.085 1956.950 1714.230 1955.291 L 1718.374 1953.633 1729.437 1947.977 L 1740.500 1942.321 1746.500 1939.012 L 1752.500 1935.703 1756.868 1933.305 L 1761.235 1930.908 1767.188 1926.954 L 1773.141 1923 1773.504 1923 L 1773.867 1923 1786.684 1914.314 L 1799.500 1905.628 1800 1905.064 L 1800.500 1904.500 1808.493 1898.500 L 1816.486 1892.500 1818.993 1890.387 L 1821.500 1888.273 1833.500 1877.791 L 1845.500 1867.309 1856.402 1856.405 L 1867.305 1845.500 1877.770 1833.500 L 1888.235 1821.500 1890.368 1818.993 L 1892.500 1816.486 1898.500 1808.493 L 1904.500 1800.500 1905.064 1800 L 1905.628 1799.500 1914.314 1786.684 L 1923 1773.867 1923 1773.388 L 1923 1772.910 1928 1765.500 L 1933 1758.090 1933 1757.629 L 1933 1757.167 1938.281 1747.834 L 1943.562 1738.500 1950.128 1725 L 1956.694 1711.500 1958.040 1708 L 1959.386 1704.500 1961.193 1701.220 L 1963 1697.939 1963 1696.921 L 1963 1695.903 1965 1691.764 L 1967 1687.624 1967 1686.299 L 1967 1684.973 1967.883 1683.236 L 1968.767 1681.500 1969.859 1679 L 1970.952 1676.500 1974.342 1666 L 1977.732 1655.500 1978.964 1651 L 1980.195 1646.500 1981.097 1644.764 L 1982 1643.027 1982 1640.573 L 1982 1638.118 1982.890 1637.568 L 1983.779 1637.019 1984.342 1633.759 L 1984.905 1630.500 1985.521 1627 L 1986.136 1623.500 1987 1621.500 L 1987.864 1619.500 1988.470 1616 L 1989.076 1612.500 1989.921 1608 L 1990.767 1603.500 1992.410 1594.626 L 1994.053 1585.753 1995.070 1577.126 L 1996.087 1568.500 1997.283 1557.500 L 1998.479 1546.500 1998.463 1022.500 L 1998.447 498.500 1997.249 487.500 L 1996.051 476.500 1995.086 469 L 1994.121 461.500 1992.466 452 L 1990.811 442.500 1989.841 438 L 1988.871 433.500 1988.333 429.500 L 1987.795 425.500 1986.898 424.550 L 1986 423.600 1986 420.847 L 1986 418.094 1985.104 415.797 L 1984.208 413.500 1982.988 409 L 1981.768 404.500 1980.988 402 L 1980.208 399.500 1977.984 392 L 1975.760 384.500 1973.357 377 L 1970.954 369.500 1969.977 367.764 L 1969 366.027 1969 364.500 L 1969 362.973 1968.117 361.236 L 1967.233 359.500 1966.243 357 L 1965.253 354.500 1963.228 350 L 1961.203 345.500 1959.102 340.761 L 1957 336.022 1957 335.418 L 1957 334.814 1950.309 321.157 L 1943.619 307.500 1943.059 307 L 1942.500 306.500 1938.584 299 L 1934.667 291.500 1932.754 288.078 L 1930.841 284.656 1926.921 278.883 L 1923 273.110 1923 272.605 L 1923 272.101 1915.290 260.801 L 1907.581 249.500 1901.040 240.904 L 1894.500 232.307 1891 228.020 L 1887.500 223.733 1880.153 215.116 L 1872.805 206.500 1859.153 192.615 L 1845.500 178.730 1834.500 169.099 L 1823.500 159.467 1818.500 155.412 L 1813.500 151.358 1805 144.881 L 1796.500 138.405 1787.500 132.393 L 1778.500 126.381 1769.648 120.616 L 1760.797 114.852 1757.648 113.092 L 1754.500 111.333 1747 107.416 L 1739.500 103.500 1739 102.940 L 1738.500 102.379 1726.822 96.690 L 1715.144 91 1714.617 91 L 1714.090 91 1707.295 87.891 L 1700.500 84.783 1698 83.758 L 1695.500 82.732 1693.500 82 L 1691.500 81.268 1688.750 80.134 L 1686 79 1683.250 77.866 L 1680.500 76.732 1678.500 75.917 L 1676.500 75.101 1672 73.673 L 1667.500 72.246 1660 70.038 L 1652.500 67.831 1650.764 66.915 L 1649.027 66 1647 66 L 1644.973 66 1643.236 65.123 L 1641.500 64.246 1637.929 63.123 L 1634.358 62 1632.238 62 L 1630.118 62 1629.565 61.106 L 1629.013 60.211 1625.256 59.670 L 1621.500 59.129 1617 58.179 L 1612.500 57.229 1604.500 55.585 L 1596.500 53.941 1589.500 52.923 L 1582.500 51.904 1575 50.892 L 1567.500 49.879 1558 48.818 L 1548.500 47.757 1024.921 47.374 L 501.343 46.991 500.735 47.599 M 1018 462 L 1018 463 1015.674 463 L 1013.349 463 1011 465.500 L 1008.651 468 1006.826 468 L 1005 468 1005 470 L 1005 472 1004 472 L 1003 472 1003 473.779 L 1003 475.558 1001 477 L 999 478.442 999 480.221 L 999 482 998 482 L 997 482 997 483.378 L 997 484.755 995.500 486 L 994 487.245 994 489.122 L 994 491 993.187 491 L 992.373 491 990.981 494.548 L 989.589 498.096 988.282 499.181 L 986.976 500.265 983.907 506.695 L 980.838 513.125 979.419 513.669 L 978 514.214 978 515.706 L 978 517.198 976.301 520.849 L 974.602 524.500 972.801 526.117 L 971 527.735 971 529.367 L 971 531 970 531 L 969 531 969 532.640 L 969 534.280 967.482 535.390 L 965.965 536.500 962.578 543 L 959.192 549.500 956.393 555 L 953.593 560.500 951.797 562.117 L 950 563.735 950 565.367 L 950 567 949 567 L 948 567 948 569 L 948 571 947 571 L 946 571 946 572.378 L 946 573.755 944.396 575.086 L 942.792 576.418 941.826 578.959 L 940.859 581.500 940.869 582 L 940.879 582.500 939.108 584.500 L 937.337 586.500 934.646 592.147 L 931.954 597.793 930.477 599.019 L 929 600.245 929 601.622 L 929 603 928 603 L 927 603 927 605 L 927 607 926 607 L 925 607 925 608.893 L 925 610.786 923.500 611.362 L 922 611.937 922 613.969 L 922 616 921 616 L 920 616 920 617.893 L 920 619.786 918.581 620.331 L 917.162 620.875 914.048 627.399 L 910.935 633.922 909.965 634.522 L 908.995 635.121 906.801 639.811 L 904.606 644.500 904.764 645.131 L 904.921 645.762 902.960 647.536 L 901 649.310 901 650.655 L 901 652 900 652 L 899 652 899 654 L 899 656 898 656 L 897 656 897 657.633 L 897 659.265 895.199 660.883 L 893.398 662.500 891.717 666.112 L 890.037 669.724 888.518 670.985 L 887 672.245 887 673.177 L 887 674.110 885.050 678.391 L 883.099 682.673 881.550 683.959 L 880 685.245 880 686.622 L 880 688 879 688 L 878 688 878 690 L 878 692 877 692 L 876 692 876 693.779 L 876 695.558 874 697 L 872 698.442 872 700.221 L 872 702 871.236 702 L 870.472 702 868.677 705.750 L 866.883 709.500 864.580 713.768 L 862.277 718.036 860.784 719.768 L 859.291 721.500 857.901 724.750 L 856.512 728 855.756 728 L 855 728 855 729.943 L 855 731.887 853.134 733.193 L 851.269 734.500 850.555 737.750 L 849.841 741 848.921 741 L 848 741 848 742.779 L 848 744.558 846 746 L 844 747.442 844 749.221 L 844 751 843.244 751 L 842.488 751 841.099 754.250 L 839.709 757.500 838.216 759.232 L 836.723 760.964 834.455 765.232 L 832.187 769.500 829.390 775 L 826.593 780.500 824.797 782.117 L 823 783.735 823 785.367 L 823 787 822 787 L 821 787 821 789 L 821 791 820 791 L 819 791 819 792.171 L 819 793.343 817.361 795.153 L 815.723 796.964 813.445 801.232 L 811.166 805.500 808.002 811.812 L 804.838 818.125 803.419 818.669 L 802 819.214 802 821.107 L 802 823 801 823 L 800 823 800 825 L 800 827 799 827 L 798 827 798 828.345 L 798 829.690 796 831.500 L 794 833.310 794 834.210 L 794 835.110 792.003 839.494 L 790.005 843.879 789 844.500 L 787.995 845.121 786.047 849.397 L 784.099 853.673 782.550 854.959 L 781 856.245 781 857.622 L 781 859 780 859 L 779 859 779 861 L 779 863 778 863 L 777 863 777 864.878 L 777 866.755 775.500 868 L 774 869.245 774 870.622 L 774 872 773 872 L 772 872 772 874 L 772 876 771 876 L 770 876 770 877.893 L 770 879.786 768.609 880.320 L 767.219 880.853 764.441 886.677 L 761.663 892.500 759.581 894.831 L 757.500 897.161 757.820 897.331 L 758.141 897.500 757.174 900.041 L 756.208 902.582 754.604 903.914 L 753 905.245 753 906.622 L 753 908 752 908 L 751 908 751 910 L 751 912 750 912 L 749 912 749 913.633 L 749 915.265 747.203 916.883 L 745.407 918.500 742.607 924 L 739.808 929.500 736.530 935.782 L 733.252 942.064 731.626 943.861 L 730 945.657 730 947.829 L 730 950 729 950 L 728 950 728 955.441 L 728 960.882 729 961.500 L 730 962.118 730 964.035 L 730 965.953 734.858 971.047 L 739.717 976.141 742.608 977.667 L 745.500 979.194 1024 978.503 L 1302.500 977.812 1306 976.194 L 1309.500 974.576 1310.750 973.359 L 1312 972.143 1312 970.939 L 1312 969.735 1313.750 968.107 L 1315.500 966.479 1316.750 964.253 L 1318 962.027 1318 955.097 L 1318 948.167 1317.216 947.833 L 1316.432 947.500 1312.626 940 L 1308.821 932.500 1305.677 926.500 L 1302.534 920.500 1300.767 918.883 L 1299 917.265 1299 915.633 L 1299 914 1298 914 L 1297 914 1297 912 L 1297 910 1296 910 L 1295 910 1295 908.829 L 1295 907.657 1293.361 905.847 L 1291.723 904.036 1289.445 899.768 L 1287.166 895.500 1284.002 889.188 L 1280.838 882.875 1279.419 882.331 L 1278 881.786 1278 879.893 L 1278 878 1277 878 L 1276 878 1276 876 L 1276 874 1275 874 L 1274 874 1274 872.241 L 1274 870.481 1271.916 869.180 L 1269.833 867.879 1270.385 866.439 L 1270.937 865 1269.969 865 L 1269 865 1269 863 L 1269 861 1268 861 L 1267 861 1267 859.622 L 1267 858.245 1265.482 856.985 L 1263.963 855.724 1262.317 852.112 L 1260.670 848.500 1258.978 846.500 L 1257.285 844.500 1255.898 841.250 L 1254.512 838 1253.756 838 L 1253 838 1253 836.122 L 1253 834.245 1251.500 833 L 1250 831.755 1250 830.378 L 1250 829 1249 829 L 1248 829 1248 827 L 1248 825 1247 825 L 1246 825 1246 823.367 L 1246 821.735 1244.233 820.117 L 1242.466 818.500 1240.038 813.500 L 1237.609 808.500 1235.555 806.169 L 1233.500 803.839 1233.630 803.169 L 1233.760 802.500 1232.984 800.459 L 1232.208 798.418 1230.604 797.086 L 1229 795.755 1229 794.378 L 1229 793 1228 793 L 1227 793 1227 791 L 1227 789 1226 789 L 1225 789 1225 787.221 L 1225 785.442 1223 784 L 1221 782.558 1221 780.779 L 1221 779 1220.236 779 L 1219.472 779 1217.677 775.250 L 1215.883 771.500 1213.580 767.232 L 1211.277 762.964 1209.784 761.232 L 1208.291 759.500 1206.901 756.250 L 1205.512 753 1204.756 753 L 1204 753 1204 751.221 L 1204 749.442 1202 748 L 1200 746.558 1200 744.779 L 1200 743 1199.079 743 L 1198.159 743 1197.445 739.750 L 1196.731 736.500 1194.866 735.193 L 1193 733.887 1193 731.943 L 1193 730 1192.244 730 L 1191.488 730 1190.102 726.750 L 1188.715 723.500 1187.062 721.500 L 1185.409 719.500 1184 716.500 L 1182.591 713.500 1180.546 711.169 L 1178.500 708.839 1178.916 708.669 L 1179.331 708.500 1177.467 704.500 L 1175.602 700.500 1173.801 698.883 L 1172 697.265 1172 695.633 L 1172 694 1171 694 L 1170 694 1170 692 L 1170 690 1169 690 L 1168 690 1168 688.622 L 1168 687.245 1166.450 685.959 L 1164.901 684.673 1163.039 680.586 L 1161.178 676.500 1161.339 675.831 L 1161.500 675.161 1159.454 672.831 L 1157.409 670.500 1155.961 667.500 L 1154.514 664.500 1152.757 662.883 L 1151 661.265 1151 659.633 L 1151 658 1150 658 L 1149 658 1149 656 L 1149 654 1148 654 L 1147 654 1147 652.655 L 1147 651.310 1145 649.500 L 1143 647.690 1143 646.790 L 1143 645.890 1141.003 641.506 L 1139.005 637.121 1138.035 636.522 L 1137.065 635.922 1133.952 629.399 L 1130.838 622.875 1129.419 622.331 L 1128 621.786 1128 619.893 L 1128 618 1127 618 L 1126 618 1126 616.122 L 1126 614.245 1124.500 613 L 1123 611.755 1123 610.378 L 1123 609 1122 609 L 1121 609 1121 607 L 1121 605 1120 605 L 1119 605 1119 603.107 L 1119 601.214 1117.581 600.669 L 1116.162 600.125 1113.093 593.695 L 1110.024 587.265 1108.512 586.010 L 1107 584.755 1107 583.823 L 1107 582.890 1104.952 578.395 L 1102.905 573.901 1101.452 573.343 L 1100 572.786 1100 570.893 L 1100 569 1099 569 L 1098 569 1098 567.367 L 1098 565.735 1096.203 564.117 L 1094.407 562.500 1091.607 557 L 1088.808 551.500 1085.530 545.218 L 1082.252 538.936 1080.626 537.139 L 1079 535.343 1079 534.171 L 1079 533 1078 533 L 1077 533 1077 531 L 1077 529 1076 529 L 1075 529 1075 527.107 L 1075 525.214 1073.548 524.657 L 1072.095 524.099 1069.974 519.800 L 1067.852 515.500 1064.552 509.218 L 1061.252 502.936 1059.772 501.218 L 1058.291 499.500 1056.901 496.250 L 1055.512 493 1054.756 493 L 1054 493 1054 491.059 L 1054 489.118 1053.027 488.517 L 1052.054 487.915 1050.328 484.208 L 1048.602 480.500 1046.801 478.883 L 1045 477.265 1045 475.633 L 1045 474 1044 474 L 1043 474 1043 472.696 L 1043 471.392 1039.750 468.446 L 1036.500 465.500 1034.264 464.250 L 1032.027 463 1030.014 463 L 1028 463 1028 462 L 1028 461 1023 461 L 1018 461 1018 462 M 224 1184 L 224 1185 222.474 1185 L 220.947 1185 216.474 1189.474 L 212 1193.947 212 1200.987 L 212 1208.027 213.250 1210.264 L 214.500 1212.500 216.108 1214.500 L 217.715 1216.500 219.102 1219.750 L 220.488 1223 221.244 1223 L 222 1223 222 1224.779 L 222 1226.558 224 1228 L 226 1229.442 226 1231.221 L 226 1233 226.921 1233 L 227.841 1233 228.555 1236.249 L 229.268 1239.498 231.134 1241.116 L 233 1242.735 233 1244.367 L 233 1246 233.756 1246 L 234.512 1246 235.901 1249.250 L 237.291 1252.500 238.784 1254.232 L 240.277 1255.964 242.545 1260.232 L 244.813 1264.500 247.610 1270 L 250.407 1275.500 252.203 1277.117 L 254 1278.735 254 1280.367 L 254 1282 255 1282 L 256 1282 256 1284 L 256 1286 257 1286 L 258 1286 258 1287.378 L 258 1288.755 259.550 1290.041 L 261.099 1291.327 263.050 1295.609 L 265 1299.890 265 1300.790 L 265 1301.690 266.805 1303.323 L 268.610 1304.957 269.992 1308.478 L 271.373 1312 272.187 1312 L 273 1312 273 1313.779 L 273 1315.558 275 1317 L 277 1318.442 277 1320.221 L 277 1322 277.764 1322 L 278.528 1322 280.323 1325.750 L 282.117 1329.500 284.420 1333.768 L 286.723 1338.036 288.190 1339.768 L 289.657 1341.500 292.438 1347.323 L 295.219 1353.147 296.609 1353.680 L 298 1354.214 298 1356.107 L 298 1358 298.889 1358 L 299.777 1358 300.393 1361.282 L 301.009 1364.565 303.005 1366.003 L 305 1367.442 305 1369.221 L 305 1371 306 1371 L 307 1371 307 1373 L 307 1375 308 1375 L 309 1375 309 1376.378 L 309 1377.755 310.512 1379.010 L 312.024 1380.265 315.076 1386.383 L 318.128 1392.500 320.314 1396.500 L 322.500 1400.500 323.250 1400.833 L 324 1401.167 324 1402.863 L 324 1404.558 326 1406 L 328 1407.442 328 1409.221 L 328 1411 329 1411 L 330 1411 330 1412.893 L 330 1414.786 331.452 1415.343 L 332.905 1415.901 334.863 1420.200 L 336.822 1424.500 336.972 1425.500 L 337.121 1426.500 338.865 1428.500 L 340.609 1430.500 343.038 1435.500 L 345.466 1440.500 347.233 1442.117 L 349 1443.735 349 1445.367 L 349 1447 350 1447 L 351 1447 351 1449 L 351 1451 352 1451 L 353 1451 353 1452.345 L 353 1453.690 354.933 1455.439 L 356.865 1457.188 356.326 1458.594 L 355.786 1460 356.706 1460 L 357.627 1460 359.019 1463.548 L 360.411 1467.096 361.718 1468.181 L 363.024 1469.265 366.093 1475.695 L 369.162 1482.125 370.581 1482.669 L 372 1483.214 372 1485.107 L 372 1487 372.889 1487 L 373.777 1487 374.393 1490.282 L 375.009 1493.565 377.005 1495.003 L 379 1496.442 379 1498.221 L 379 1500 380 1500 L 381 1500 381 1501.893 L 381 1503.786 382.391 1504.320 L 383.781 1504.853 386.559 1510.677 L 389.337 1516.500 391.108 1518.500 L 392.879 1520.500 392.774 1521 L 392.669 1521.500 394.533 1525.500 L 396.398 1529.500 398.199 1531.117 L 400 1532.735 400 1534.367 L 400 1536 401 1536 L 402 1536 402 1538 L 402 1540 403 1540 L 404 1540 404 1541.378 L 404 1542.755 405.550 1544.041 L 407.099 1545.327 409.050 1549.609 L 411 1553.890 411 1554.823 L 411 1555.755 412.477 1556.981 L 413.954 1558.207 416.680 1563.853 L 419.407 1569.500 421.203 1571.117 L 423 1572.735 423 1574.367 L 423 1576 424 1576 L 425 1576 425 1577.417 L 425 1578.833 431.455 1585.417 L 437.910 1592 1022.054 1592 L 1606.198 1592 1609.599 1590.386 L 1613 1588.772 1613 1587.886 L 1613 1587 1613.857 1587 L 1614.714 1587 1619.857 1581.857 L 1625 1576.714 1625 1575.357 L 1625 1574 1626 1574 L 1627 1574 1627 1572.367 L 1627 1570.735 1628.797 1569.117 L 1630.593 1567.500 1633.393 1562 L 1636.192 1556.500 1639.470 1550.218 L 1642.748 1543.936 1644.374 1542.139 L 1646 1540.343 1646 1539.171 L 1646 1538 1647 1538 L 1648 1538 1648 1536 L 1648 1534 1649 1534 L 1650 1534 1650 1532.241 L 1650 1530.481 1651.950 1529.263 L 1653.901 1528.045 1654.562 1524.522 L 1655.223 1521 1656.111 1521 L 1657 1521 1657 1519.622 L 1657 1518.245 1658.512 1516.990 L 1660.024 1515.735 1663 1509.500 L 1665.976 1503.265 1667.488 1502.010 L 1669 1500.755 1669 1499.378 L 1669 1498 1670 1498 L 1671 1498 1671 1496.122 L 1671 1494.245 1672.294 1493.171 L 1673.589 1492.096 1674.981 1488.548 L 1676.373 1485 1677.187 1485 L 1678 1485 1678 1483.367 L 1678 1481.735 1679.797 1480.117 L 1681.593 1478.500 1684.320 1472.853 L 1687.046 1467.207 1688.523 1465.981 L 1690 1464.755 1690 1463.823 L 1690 1462.890 1691.950 1458.609 L 1693.901 1454.327 1695.450 1453.041 L 1697 1451.755 1697 1450.378 L 1697 1449 1698 1449 L 1699 1449 1699 1447 L 1699 1445 1700 1445 L 1701 1445 1701 1443.367 L 1701 1441.735 1702.797 1440.117 L 1704.593 1438.500 1707.390 1433 L 1710.187 1427.500 1712.455 1423.232 L 1714.723 1418.964 1716.216 1417.232 L 1717.709 1415.500 1719.099 1412.250 L 1720.488 1409 1721.244 1409 L 1722 1409 1722 1407.367 L 1722 1405.735 1723.801 1404.117 L 1725.602 1402.500 1727.375 1398.692 L 1729.149 1394.884 1727.952 1393.442 L 1726.755 1392 1721.378 1392 L 1716 1392 1716 1391 L 1716 1390 1712.559 1390 L 1709.118 1390 1708.500 1389 L 1707.882 1388 1705.441 1388 L 1703 1388 1703 1387 L 1703 1386 1699 1386 L 1695 1386 1695 1385 L 1695 1384 1693.030 1384 L 1691.061 1384 1687.466 1381.981 L 1683.871 1379.962 1683.051 1380.468 L 1682.232 1380.975 1675.866 1377.737 L 1669.500 1374.500 1669.167 1373.750 L 1668.833 1373 1666.917 1373 L 1665 1373 1665 1372 L 1665 1371 1663.221 1371 L 1661.442 1371 1660 1369 L 1658.558 1367 1657.402 1367 L 1656.245 1367 1654.914 1365.396 L 1653.582 1363.792 1651.541 1362.853 L 1649.500 1361.914 1647.257 1360.618 L 1645.014 1359.322 1643.178 1357.661 L 1641.343 1356 1640.410 1356 L 1639.477 1356 1623.738 1340.239 L 1608 1324.477 1608 1323.543 L 1608 1322.609 1605.374 1319.868 L 1602.748 1317.128 1601.417 1314.814 L 1600.086 1312.500 1599.147 1310.459 L 1598.208 1308.418 1596.604 1307.086 L 1595 1305.755 1595 1304.378 L 1595 1303 1594 1303 L 1593 1303 1593 1301 L 1593 1299 1592 1299 L 1591 1299 1591 1297.083 L 1591 1295.167 1590.250 1294.833 L 1589.500 1294.500 1585.304 1286.191 L 1581.108 1277.881 1581.622 1276.542 L 1582.136 1275.202 1581.068 1274.542 L 1580 1273.882 1580 1271.441 L 1580 1269 1579 1269 L 1578 1269 1578 1266 L 1578 1263 1577 1263 L 1576 1263 1576 1260.559 L 1576 1258.118 1575 1257.500 L 1574 1256.882 1574 1253.500 L 1574 1250.118 1573 1249.500 L 1572 1248.882 1572 1244.441 L 1572 1240 1571 1240 L 1570 1240 1570 1230.500 L 1570 1221 1569 1221 L 1568 1221 1568 1209.059 L 1568 1197.118 1569 1196.500 L 1570 1195.882 1570 1189.441 L 1570 1183 897 1183 L 224 1183 224 1184" stroke="none" fill="#fbfbfb" fill-rule="evenodd"/></svg>