<svg xmlns="http://www.w3.org/2000/svg" width="2048" height="2048" viewBox="0 0 2048 2048" version="1.1"><path d="M 1018 461.500 L 1018 462 1018.500 462 L 1019 462 1019 461.500 L 1019 461 1018.500 461 L 1018 461 1018 461.500 M 1025.500 462 L 1027.500 462.859 1025.744 462.930 L 1023.989 463 1024.244 720.500 L 1024.500 978 884.736 978 L 744.973 978 742.736 976.750 L 740.500 975.500 737.002 972.500 L 733.504 969.500 736.476 972.788 L 739.448 976.077 742.378 977.538 L 745.307 979 1023.404 978.909 L 1301.500 978.819 1306.494 976.118 L 1311.489 973.417 1311.856 971.458 L 1312.223 969.500 1313.544 968.738 L 1314.866 967.976 1316.433 964.834 L 1318 961.693 1318 954.846 L 1318 948 1317 948 L 1316 948 1316 946 L 1316 944 1315.187 944 L 1314.373 944 1312.960 940.398 L 1311.547 936.796 1309.551 935.398 L 1307.555 934 1308.837 934 L 1310.118 934 1309.490 932.984 L 1308.862 931.967 1308.098 932.440 L 1307.333 932.912 1307.333 931.557 L 1307.333 930.202 1304.557 924.527 L 1301.781 918.853 1300.391 918.320 L 1299 917.786 1299 915.893 L 1299 914 1298 914 L 1297 914 1297 912 L 1297 910 1296 910 L 1295 910 1294.997 908.250 L 1294.994 906.500 1292.049 904.527 L 1289.104 902.554 1290.004 901.997 L 1290.904 901.441 1289.620 898.971 L 1288.336 896.500 1287.335 896.694 L 1286.333 896.889 1286.333 895.545 L 1286.333 894.202 1283.644 888.704 L 1280.954 883.207 1279.477 881.981 L 1278 880.755 1278 879.378 L 1278 878 1277 878 L 1276 878 1276 876.429 L 1276 874.857 1274.619 873.476 L 1273.238 872.095 1272.619 872.714 L 1272 873.333 1272 872.167 L 1272 871 1273.155 871 L 1274.310 871 1272.655 869.171 L 1271 867.343 1271 866.171 L 1271 865 1270 865 L 1269 865 1269 863 L 1269 861 1268 861 L 1267 861 1267 859 L 1267 857 1265.750 856.882 L 1264.500 856.763 1263.917 856.826 L 1263.333 856.889 1263.333 855.556 L 1263.333 854.222 1261.685 850.749 L 1260.037 847.276 1258.518 846.015 L 1257 844.755 1257 843.434 L 1257 842.113 1254.930 840.663 L 1252.860 839.213 1253.900 838.857 L 1254.941 838.500 1253.639 836 L 1252.336 833.500 1251.168 833.750 L 1250 834 1250.118 833.250 L 1250.237 832.500 1250.048 830.500 L 1249.859 828.500 1249 830.500 L 1248.141 832.500 1248.070 828.750 L 1248 825 1247 825 L 1246 825 1246 823.221 L 1246 821.442 1244 820 L 1242 818.558 1242 816.779 L 1242 815 1241.236 815 L 1240.472 815 1238.694 811.250 L 1236.916 807.500 1234.112 802.500 L 1231.308 797.500 1230.154 797.750 L 1229 798 1229.250 797.199 L 1229.500 796.399 1228.063 792.699 L 1226.627 789 1225.813 789 L 1225 789 1225 787.221 L 1225 785.442 1223 784 L 1221 782.558 1221 780.779 L 1221 779 1220 779 L 1219 779 1219 777.557 L 1219 776.113 1216.777 774.557 L 1214.555 773 1215.837 773 L 1217.118 773 1216.490 771.984 L 1215.862 770.967 1215.138 771.414 L 1214.415 771.861 1214.283 770.101 L 1214.150 768.341 1212.191 764.921 L 1210.232 761.500 1209.042 761.775 L 1207.851 762.050 1208.356 761.234 L 1208.860 760.417 1206.086 754.679 L 1203.313 748.940 1201.263 747.030 L 1199.213 745.120 1198.606 745.727 L 1198 746.333 1198 745.250 L 1198 744.167 1198.955 743.833 L 1199.909 743.500 1198.247 740 L 1196.585 736.500 1194.792 734.883 L 1193 733.265 1193 731.633 L 1193 730 1192 730 L 1191 730 1191 728 L 1191 726 1190 726 L 1189 726 1189 724.655 L 1189 723.310 1187 721.500 L 1185 719.690 1185 718.402 L 1185 717.113 1182.777 715.557 L 1180.555 714 1181.932 714 L 1183.310 714 1181.853 712.250 L 1180.396 710.500 1177.965 705.500 L 1175.534 700.500 1173.767 698.883 L 1172 697.265 1172 695.633 L 1172 694 1171 694 L 1170 694 1170 692 L 1170 690 1169 690 L 1168 690 1168 688.589 L 1168 687.178 1164.923 684.589 L 1161.847 682 1163.173 681.967 L 1164.500 681.933 1162.244 680.052 L 1159.989 678.170 1160.965 677.835 L 1161.941 677.500 1160.639 675 L 1159.336 672.500 1158.335 672.694 L 1157.333 672.889 1157.333 671.556 L 1157.333 670.222 1155.685 666.749 L 1154.037 663.276 1152.518 662.015 L 1151 660.755 1151 659.378 L 1151 658 1150 658 L 1149 658 1149 656 L 1149 654 1148 654 L 1147 654 1147 652.107 L 1147 650.214 1145.500 649.638 L 1144 649.063 1144 647.031 L 1144 645 1143 645 L 1142 645 1142 643 L 1142 641 1141.237 641 L 1140.474 641 1139.451 638.750 L 1138.427 636.500 1137.139 636.775 L 1135.851 637.050 1136.356 636.234 L 1136.860 635.417 1134.119 629.746 L 1131.378 624.075 1129.555 622.061 L 1127.733 620.047 1126.866 620.583 L 1126 621.118 1126 620.059 L 1126 619 1127.250 618.932 L 1128.500 618.865 1126.250 617.780 L 1124 616.694 1124 615.740 L 1124 614.786 1125.641 615.416 L 1127.283 616.046 1126.028 614.534 L 1124.773 613.022 1124.094 613.442 L 1123.415 613.861 1123.252 611.696 L 1123.089 609.530 1122.044 609.181 L 1121 608.833 1121 606.917 L 1121 605 1120 605 L 1119 605 1119 603.367 L 1119 601.735 1117.203 600.117 L 1115.407 598.500 1112.653 592.796 L 1109.898 587.093 1107.199 584.965 L 1104.500 582.837 1106.110 583.333 L 1107.719 583.830 1105.311 578.997 L 1102.903 574.164 1101.452 572.960 L 1100 571.755 1100 570.378 L 1100 569 1099 569 L 1098 569 1098 567.221 L 1098 565.442 1096 564 L 1094 562.558 1094 560.779 L 1094 559 1093 559 L 1092 559 1092 557.557 L 1092 556.113 1090.189 554.807 L 1088.378 553.500 1087.497 552 L 1086.616 550.500 1088.558 551.983 L 1090.500 553.466 1088.921 551.483 L 1087.343 549.500 1084.648 543.853 L 1081.954 538.207 1080.477 536.981 L 1079 535.755 1079 534.378 L 1079 533 1078 533 L 1077 533 1077 531 L 1077 529 1076 529 L 1075 529 1075 527.367 L 1075 525.735 1072.847 523.867 L 1070.694 522 1069.986 522 L 1069.277 522 1069.760 519.473 L 1070.244 516.946 1068.122 515.106 L 1066 513.265 1066 511.633 L 1066 510 1065.244 510 L 1064.488 510 1063.099 506.750 L 1061.709 503.500 1060.216 501.768 L 1058.723 500.036 1056.544 495.768 L 1054.366 491.500 1053.183 491.750 L 1052 492 1052 491 L 1052 490 1053.155 490 L 1054.310 490 1052.862 488.250 L 1051.414 486.500 1049.964 483.500 L 1048.514 480.500 1046.757 478.883 L 1045 477.265 1045 475.633 L 1045 474 1044 474 L 1043 474 1043 472 L 1043 470 1041.750 469.882 L 1040.500 469.763 1039.750 469.882 L 1039 470 1039.250 468.750 L 1039.500 467.500 1038.176 467.775 L 1036.851 468.050 1037.442 467.094 L 1038.033 466.138 1037.016 465.510 L 1036 464.882 1036 466.163 L 1036 467.445 1034.443 465.223 L 1032.887 463 1030.443 463 L 1028 463 1028 462 L 1028 461 1025.750 461.070 L 1023.500 461.141 1025.500 462 M 1012 464.500 L 1012 465 1012.500 465 L 1013 465 1013 464.500 L 1013 464 1012.500 464 L 1012 464 1012 464.500 M 1031.333 464.667 L 1032 465.333 1032.667 464.667 L 1033.333 464 1032 464 L 1030.667 464 1031.333 464.667 M 1010 466.500 L 1010 467 1010.500 467 L 1011 467 1011 466.500 L 1011 466 1010.500 466 L 1010 466 1010 466.500 M 1005.750 468.662 L 1007 469.167 1008.250 468.662 L 1009.500 468.158 1007 468.158 L 1004.500 468.158 1005.750 468.662 M 1041 472 L 1041 473.333 1041.667 472.667 L 1042.333 472 1041.667 471.333 L 1041 470.667 1041 472 M 1003.158 474 L 1003.158 476.500 1003.662 475.250 L 1004.167 474 1003.662 472.750 L 1003.158 471.500 1003.158 474 M 1043 476 L 1043 477.333 1043.667 476.667 L 1044.333 476 1043.667 475.333 L 1043 474.667 1043 476 M 1001 476.500 L 1001 477 1001.500 477 L 1002 477 1002 476.500 L 1002 476 1001.500 476 L 1001 476 1001 476.500 M 999.158 480 L 999.158 482.500 999.662 481.250 L 1000.167 480 999.662 478.750 L 999.158 477.500 999.158 480 M 1045 479.500 L 1045 480 1045.500 480 L 1046 480 1046 479.500 L 1046 479 1045.500 479 L 1045 479 1045 479.500 M 1047 482 L 1047 483.333 1047.667 482.667 L 1048.333 482 1047.667 481.333 L 1047 480.667 1047 482 M 997.079 482.921 L 997 484.343 995.287 486.421 L 993.574 488.500 995.905 486.354 L 998.236 484.208 997.697 482.854 L 997.158 481.500 997.079 482.921 M 1048.500 485 L 1047.882 486 1048.941 486 L 1050 486 1050 485 L 1050 484 1049.559 484 L 1049.118 484 1048.500 485 M 1050.333 488.667 L 1051 489.333 1051.667 488.667 L 1052.333 488 1051 488 L 1049.667 488 1050.333 488.667 M 992.405 491.155 L 991.691 492.309 992.845 491.595 L 994 490.882 994 490.441 L 994 490 993.559 490 L 993.118 490 992.405 491.155 M 990.405 495.155 L 989.691 496.309 990.845 495.595 L 992 494.882 992 494.441 L 992 494 991.559 494 L 991.118 494 990.405 495.155 M 1054 495 L 1054 496.333 1054.667 495.667 L 1055.333 495 1054.667 494.333 L 1054 493.667 1054 495 M 987.405 500.250 L 985.500 502.500 987.750 500.595 L 990 498.690 990 498.345 L 990 498 989.655 498 L 989.310 498 987.405 500.250 M 1056 498.500 L 1056 499 1056.500 499 L 1057 499 1057 498.500 L 1057 498 1056.500 498 L 1056 498 1056 498.500 M 985.331 504.250 L 984.417 505.500 983.040 508.248 L 981.664 510.997 982.082 511.397 L 982.500 511.798 984.646 507.399 L 986.791 503 986.518 503 L 986.245 503 985.331 504.250 M 1060 504 L 1060 505.333 1060.667 504.667 L 1061.333 504 1060.667 503.333 L 1060 502.667 1060 504 M 1062 508 L 1062 509.333 1062.667 508.667 L 1063.333 508 1062.667 507.333 L 1062 506.667 1062 508 M 1064 512 L 1064 513.333 1064.667 512.667 L 1065.333 512 1064.667 511.333 L 1064 510.667 1064 512 M 980 513.500 L 980 514 980.500 514 L 981 514 981 513.500 L 981 513 980.500 513 L 980 513 980 513.500 M 978.158 516 L 978.158 518.500 978.662 517.250 L 979.167 516 978.662 514.750 L 978.158 513.500 978.158 516 M 1066 515.500 L 1066 516 1066.500 516 L 1067 516 1067 515.500 L 1067 515 1066.500 515 L 1066 515 1066 515.500 M 1067.333 517.667 L 1068 518.333 1068.667 517.667 L 1069.333 517 1068 517 L 1066.667 517 1067.333 517.667 M 975.333 521.667 L 976 522.333 976.667 521.667 L 977.333 521 976 521 L 974.667 521 975.333 521.667 M 1071 524.500 L 1071 525 1071.500 525 L 1072 525 1072 524.500 L 1072 524 1071.500 524 L 1071 524 1071 524.500 M 973 525.500 L 973 526 973.500 526 L 974 526 974 525.500 L 974 525 973.500 525 L 973 525 973 525.500 M 1073 527 L 1073 528.333 1073.667 527.667 L 1074.333 527 1073.667 526.333 L 1073 525.667 1073 527 M 971 527.500 L 971 528 971.500 528 L 972 528 972 527.500 L 972 527 971.500 527 L 971 527 971 527.500 M 1075 531 L 1075 532.333 1075.667 531.667 L 1076.333 531 1075.667 530.333 L 1075 529.667 1075 531 M 969 531.500 L 969 532 969.500 532 L 970 532 970 531.500 L 970 531 969.500 531 L 969 531 969 531.500 M 966.965 535.542 L 965.686 537.084 963.343 541.711 L 961 546.339 961.022 547.419 L 961.045 548.500 963.784 542.890 L 966.523 537.279 967.884 535.640 L 969.245 534 968.745 534 L 968.245 534 966.965 535.542 M 1077 535 L 1077 536.333 1077.667 535.667 L 1078.333 535 1077.667 534.333 L 1077 533.667 1077 535 M 1079 538 L 1079 539.333 1079.667 538.667 L 1080.333 538 1079.667 537.333 L 1079 536.667 1079 538 M 1081.079 540.583 L 1081.158 542.500 1081.683 541.188 L 1082.208 539.875 1081.604 539.271 L 1081 538.667 1081.079 540.583 M 1082.500 544 L 1083.118 545 1083.559 545 L 1084 545 1084 544 L 1084 543 1082.941 543 L 1081.882 543 1082.500 544 M 1084.500 548 L 1085.118 549 1085.559 549 L 1086 549 1086 548 L 1086 547 1084.941 547 L 1083.882 547 1084.500 548 M 959 549.500 L 959 550 959.500 550 L 960 550 960 549.500 L 960 549 959.500 549 L 959 549 959 549.500 M 957 553.500 L 957 554 957.500 554 L 958 554 958 553.500 L 958 553 957.500 553 L 957 553 957 553.500 M 1090 557 L 1090 558.333 1090.667 557.667 L 1091.333 557 1090.667 556.333 L 1090 555.667 1090 557 M 955 557.500 L 955 558 955.500 558 L 956 558 956 557.500 L 956 557 955.500 557 L 955 557 955 557.500 M 1092 561 L 1092 562.333 1092.667 561.667 L 1093.333 561 1092.667 560.333 L 1092 559.667 1092 561 M 952.333 561.667 L 953 562.333 953.667 561.667 L 954.333 561 953 561 L 951.667 561 952.333 561.667 M 950 563.500 L 950 564 950.500 564 L 951 564 951 563.500 L 951 563 950.500 563 L 950 563 950 563.500 M 1094 564.500 L 1094 565 1094.500 565 L 1095 565 1095 564.500 L 1095 564 1094.500 564 L 1094 564 1094 564.500 M 1096 567 L 1096 568.333 1096.667 567.667 L 1097.333 567 1096.667 566.333 L 1096 565.667 1096 567 M 948.079 568.583 L 948.158 570.500 948.683 569.188 L 949.208 567.875 948.604 567.271 L 948 566.667 948.079 568.583 M 1098 571 L 1098 572.333 1098.667 571.667 L 1099.333 571 1098.667 570.333 L 1098 569.667 1098 571 M 946.079 572.128 L 946 573.755 944.482 575.015 L 942.963 576.276 941.314 579.888 L 939.665 583.500 938.082 585.483 L 936.500 587.466 938.268 586.095 L 940.037 584.724 941.683 581.112 L 943.330 577.500 945.272 575.321 L 947.214 573.143 946.686 571.821 L 946.158 570.500 946.079 572.128 M 1100 574.409 L 1100 574.755 1101.500 576 L 1103 577.245 1103 576.229 L 1103 575.214 1101.500 574.638 L 1100 574.063 1100 574.409 M 1103.500 580 L 1104.118 581 1104.559 581 L 1105 581 1105 580 L 1105 579 1103.941 579 L 1102.882 579 1103.500 580 M 936 589.500 L 936 590 936.500 590 L 937 590 937 589.500 L 937 589 936.500 589 L 936 589 936 589.500 M 1109 589.500 L 1109 590 1109.500 590 L 1110 590 1110 589.500 L 1110 589 1109.500 589 L 1109 589 1109 589.500 M 1111 593 L 1111 594.333 1111.667 593.667 L 1112.333 593 1111.667 592.333 L 1111 591.667 1111 593 M 934 593.500 L 934 594 934.500 594 L 935 594 935 593.500 L 935 593 934.500 593 L 934 593 934 593.500 M 1113 597 L 1113 598.333 1113.667 597.667 L 1114.333 597 1113.667 596.333 L 1113 595.667 1113 597 M 932 597.500 L 932 598 932.500 598 L 933 598 933 597.500 L 933 597 932.500 597 L 932 597 932 597.500 M 929 601 L 929 603 929.383 603 L 929.767 603 930.290 601 L 930.813 599 929.906 599 L 929 599 929 601 M 1115 600.500 L 1115 601 1115.500 601 L 1116 601 1116 600.500 L 1116 600 1115.500 600 L 1115 600 1115 600.500 M 1117 603 L 1117 604.333 1117.667 603.667 L 1118.333 603 1117.667 602.333 L 1117 601.667 1117 603 M 927.158 605 L 927.158 607.500 927.662 606.250 L 928.167 605 927.662 603.750 L 927.158 602.500 927.158 605 M 1119 607 L 1119 608.333 1119.667 607.667 L 1120.333 607 1119.667 606.333 L 1119 605.667 1119 607 M 925 608.186 L 925 609.371 922.750 611.855 L 920.500 614.339 923.219 612.420 L 925.937 610.500 925.969 608.750 L 926 607 925.500 607 L 925 607 925 608.186 M 1121 610.500 L 1121 611 1121.500 611 L 1122 611 1122 610.500 L 1122 610 1121.500 610 L 1121 610 1121 610.500 M 920 616.500 L 920 617 920.500 617 L 921 617 921 616.500 L 921 616 920.500 616 L 920 616 920 616.500 M 916.872 621.750 L 915.500 623.500 917.250 622.128 L 919 620.755 919 620.378 L 919 620 918.622 620 L 918.245 620 916.872 621.750 M 1128 623.500 L 1128 624 1128.500 624 L 1129 624 1129 623.500 L 1129 623 1128.500 623 L 1128 623 1128 623.500 M 914.405 626.155 L 913.691 627.309 914.845 626.595 L 916 625.882 916 625.441 L 916 625 915.559 625 L 915.118 625 914.405 626.155 M 1130 626 L 1130 627.333 1130.667 626.667 L 1131.333 626 1130.667 625.333 L 1130 624.667 1130 626 M 1132 629 L 1132 630.333 1132.667 629.667 L 1133.333 629 1132.667 628.333 L 1132 627.667 1132 629 M 912.079 631.291 L 911.208 633.582 909.604 634.914 L 908 636.245 908.079 637.872 L 908.158 639.500 908.706 638 L 909.255 636.500 910.978 634.500 L 912.702 632.500 913.320 630.750 L 913.937 629 913.444 629 L 912.950 629 912.079 631.291 M 1134 633 L 1134 634.333 1134.667 633.667 L 1135.333 633 1134.667 632.333 L 1134 631.667 1134 633 M 1138 639 L 1138 640.333 1138.667 639.667 L 1139.333 639 1138.667 638.333 L 1138 637.667 1138 639 M 906.079 641.583 L 906.158 643.500 906.683 642.188 L 907.208 640.875 906.604 640.271 L 906 639.667 906.079 641.583 M 1139.500 643 L 1140.118 644 1140.559 644 L 1141 644 1141 643 L 1141 642 1139.941 642 L 1138.882 642 1139.500 643 M 904 644 L 904 645.333 904.667 644.667 L 905.333 644 904.667 643.333 L 904 642.667 904 644 M 904 646.500 L 904 647 904.500 647 L 905 647 905 646.500 L 905 646 904.500 646 L 904 646 904 646.500 M 1141.333 646.667 L 1142 647.333 1142.667 646.667 L 1143.333 646 1142 646 L 1140.667 646 1141.333 646.667 M 902 648.500 L 902 649 902.500 649 L 903 649 903 648.500 L 903 648 902.500 648 L 902 648 902 648.500 M 1145 652 L 1145 653.333 1145.667 652.667 L 1146.333 652 1145.667 651.333 L 1145 650.667 1145 652 M 899.333 652.667 L 900 653.333 900.667 652.667 L 901.333 652 900 652 L 898.667 652 899.333 652.667 M 1147 656 L 1147 657.333 1147.667 656.667 L 1148.333 656 1147.667 655.333 L 1147 654.667 1147 656 M 897 656.500 L 897 657 897.500 657 L 898 657 898 656.500 L 898 656 897.500 656 L 897 656 897 656.500 M 1149 660 L 1149 661.333 1149.667 660.667 L 1150.333 660 1149.667 659.333 L 1149 658.667 1149 660 M 894.293 661.250 L 893.341 662.500 891.644 666.208 L 889.946 669.915 889.037 670.477 L 888.127 671.040 886.590 674.120 L 885.053 677.201 886.527 675.978 L 888 674.755 888 673.500 L 888 672.245 889.452 671.040 L 890.903 669.836 893.354 664.918 L 895.804 660 895.525 660 L 895.245 660 894.293 661.250 M 1151 663.500 L 1151 664 1151.500 664 L 1152 664 1152 663.500 L 1152 663 1151.500 663 L 1151 663 1151 663.500 M 1153.079 665.583 L 1153.158 667.500 1153.683 666.188 L 1154.208 664.875 1153.604 664.271 L 1153 663.667 1153.079 665.583 M 1155 669 L 1155 670.333 1155.667 669.667 L 1156.333 669 1155.667 668.333 L 1155 667.667 1155 669 M 1158.500 675 L 1159.118 676 1159.559 676 L 1160 676 1160 675 L 1160 674 1158.941 674 L 1157.882 674 1158.500 675 M 885 678.500 L 885 679 885.500 679 L 886 679 886 678.500 L 886 678 885.500 678 L 885 678 885 678.500 M 883 682.500 L 883 683 883.500 683 L 884 683 884 682.500 L 884 682 883.500 682 L 883 682 883 682.500 M 881 684.500 L 881 685 881.500 685 L 882 685 882 684.500 L 882 684 881.500 684 L 881 684 881 684.500 M 1166 688 L 1166 689.333 1166.667 688.667 L 1167.333 688 1166.667 687.333 L 1166 686.667 1166 688 M 878.333 688.667 L 879 689.333 879.667 688.667 L 880.333 688 879 688 L 877.667 688 878.333 688.667 M 1168 692 L 1168 693.333 1168.667 692.667 L 1169.333 692 1168.667 691.333 L 1168 690.667 1168 692 M 876 692.500 L 876 693 876.500 693 L 877 693 877 692.500 L 877 692 876.500 692 L 876 692 876 692.500 M 876 695 L 876 696.333 876.667 695.667 L 877.333 695 876.667 694.333 L 876 693.667 876 695 M 1170 696 L 1170 697.333 1170.667 696.667 L 1171.333 696 1170.667 695.333 L 1170 694.667 1170 696 M 874 696.500 L 874 697 874.500 697 L 875 697 875 696.500 L 875 696 874.500 696 L 874 696 874 696.500 M 870.086 703.315 L 867.672 708.500 866.086 710.483 L 864.500 712.466 866.268 711.095 L 868.037 709.724 869.716 706.112 L 871.396 702.500 872.296 701.880 L 873.197 701.260 872.848 699.695 L 872.500 698.130 870.086 703.315 M 1172 699.500 L 1172 700 1172.500 700 L 1173 700 1173 699.500 L 1173 699 1172.500 699 L 1172 699 1172 699.500 M 1174 702 L 1174 703.333 1174.667 702.667 L 1175.333 702 1174.667 701.333 L 1174 700.667 1174 702 M 1175.500 705 L 1176.118 706 1176.559 706 L 1177 706 1177 705 L 1177 704 1175.941 704 L 1174.882 704 1175.500 705 M 1177.500 709 L 1178.118 710 1178.559 710 L 1179 710 1179 709 L 1179 708 1177.941 708 L 1176.882 708 1177.500 709 M 1179.333 712.667 L 1180 713.333 1180.667 712.667 L 1181.333 712 1180 712 L 1178.667 712 1179.333 712.667 M 863.405 715.155 L 862.691 716.309 863.845 715.595 L 865 714.882 865 714.441 L 865 714 864.559 714 L 864.118 714 863.405 715.155 M 862 718.500 L 862 719 862.500 719 L 863 719 863 718.500 L 863 718 862.500 718 L 862 718 862 718.500 M 1183 718.500 L 1183 719 1183.500 719 L 1184 719 1184 718.500 L 1184 718 1183.500 718 L 1183 718 1183 718.500 M 860 720.500 L 860 721 860.500 721 L 861 721 861 720.500 L 861 720 860.500 720 L 860 720 860 720.500 M 1187 724 L 1187 725.333 1187.667 724.667 L 1188.333 724 1187.667 723.333 L 1187 722.667 1187 724 M 857.290 726 L 856.767 728 855.883 728 L 855 728 855.006 730.250 L 855.012 732.500 856.310 730 L 857.607 727.500 858.272 725.750 L 858.937 724 858.375 724 L 857.813 724 857.290 726 M 1189 728 L 1189 729.333 1189.667 728.667 L 1190.333 728 1189.667 727.333 L 1189 726.667 1189 728 M 1191 732 L 1191 733.333 1191.667 732.667 L 1192.333 732 1191.667 731.333 L 1191 730.667 1191 732 M 853 733 L 853 734.333 853.667 733.667 L 854.333 733 853.667 732.333 L 853 731.667 853 733 M 851.158 736 L 851.158 738.500 851.662 737.250 L 852.167 736 851.662 734.750 L 851.158 733.500 851.158 736 M 1193 735.500 L 1193 736 1193.500 736 L 1194 736 1194 735.500 L 1194 735 1193.500 735 L 1193 735 1193 735.500 M 1194.333 737.667 L 1195 738.333 1195.667 737.667 L 1196.333 737 1195 737 L 1193.667 737 1194.333 737.667 M 848.710 740 L 848.187 742 849.094 742 L 850 742 850 740 L 850 738 849.617 738 L 849.233 738 848.710 740 M 1196.500 741 L 1195.882 742 1196.941 742 L 1198 742 1198 741 L 1198 740 1197.559 740 L 1197.118 740 1196.500 741 M 846 745.500 L 846 746 846.500 746 L 847 746 847 745.500 L 847 745 846.500 745 L 846 745 846 745.500 M 844 747.500 L 844 748 844.500 748 L 845 748 845 747.500 L 845 747 844.500 747 L 844 747 844 747.500 M 1200 748.500 L 1200 749 1200.500 749 L 1201 749 1201 748.500 L 1201 748 1200.500 748 L 1200 748 1200 748.500 M 1202 751 L 1202 752.333 1202.667 751.667 L 1203.333 751 1202.667 750.333 L 1202 749.667 1202 751 M 842 751.500 L 842 752 842.500 752 L 843 752 843 751.500 L 843 751 842.500 751 L 842 751 842 751.500 M 840.405 755.155 L 839.691 756.309 840.845 755.595 L 842 754.882 842 754.441 L 842 754 841.559 754 L 841.118 754 840.405 755.155 M 1204 755 L 1204 756.333 1204.667 755.667 L 1205.333 755 1204.667 754.333 L 1204 753.667 1204 755 M 838.424 759.250 L 836.500 761.500 835.250 763.736 L 834 765.973 834.034 767.236 L 834.068 768.500 835.806 764.831 L 837.544 761.162 839.427 759.081 L 841.310 757 840.829 757 L 840.349 757 838.424 759.250 M 1206 758 L 1206 759.333 1206.667 758.667 L 1207.333 758 1206.667 757.333 L 1206 756.667 1206 758 M 1210 764 L 1210 765.333 1210.667 764.667 L 1211.333 764 1210.667 763.333 L 1210 762.667 1210 764 M 1211.500 768 L 1212.118 769 1212.559 769 L 1213 769 1213 768 L 1213 767 1211.941 767 L 1210.882 767 1211.500 768 M 832 769.500 L 832 770 832.500 770 L 833 770 833 769.500 L 833 769 832.500 769 L 832 769 832 769.500 M 830 773.500 L 830 774 830.500 774 L 831 774 831 773.500 L 831 773 830.500 773 L 830 773 830 773.500 M 1217 777 L 1217 778.333 1217.667 777.667 L 1218.333 777 1217.667 776.333 L 1217 775.667 1217 777 M 828 777.500 L 828 778 828.500 778 L 829 778 829 777.500 L 829 777 828.500 777 L 828 777 828 777.500 M 1219 781 L 1219 782.333 1219.667 781.667 L 1220.333 781 1219.667 780.333 L 1219 779.667 1219 781 M 825 781.500 L 825 782 825.500 782 L 826 782 826 781.500 L 826 781 825.500 781 L 825 781 825 781.500 M 823 783.500 L 823 784 823.500 784 L 824 784 824 783.500 L 824 783 823.500 783 L 823 783 823 783.500 M 1221 784.500 L 1221 785 1221.500 785 L 1222 785 1222 784.500 L 1222 784 1221.500 784 L 1221 784 1221 784.500 M 1223 787 L 1223 788.333 1223.667 787.667 L 1224.333 787 1223.667 786.333 L 1223 785.667 1223 787 M 821 787.500 L 821 788 821.500 788 L 822 788 822 787.500 L 822 787 821.500 787 L 821 787 821 787.500 M 821 789.500 L 821 790 821.500 790 L 822 790 822 789.500 L 822 789 821.500 789 L 821 789 821 789.500 M 1225 791 L 1225 792.333 1225.667 791.667 L 1226.333 791 1225.667 790.333 L 1225 789.667 1225 791 M 819.079 792.128 L 819 793.755 817.548 794.960 L 816.097 796.164 813.647 801.080 L 811.198 805.996 812.072 805.455 L 812.946 804.915 814.638 801.208 L 816.330 797.500 818.272 795.321 L 820.214 793.143 819.686 791.821 L 819.158 790.500 819.079 792.128 M 1227.079 794.583 L 1227.158 796.500 1227.683 795.188 L 1228.208 793.875 1227.604 793.271 L 1227 792.667 1227.079 794.583 M 1230.500 800 L 1231.118 801 1231.559 801 L 1232 801 1232 800 L 1232 799 1230.941 799 L 1229.882 799 1230.500 800 M 1232.500 804 L 1233.118 805 1233.559 805 L 1234 805 1234 804 L 1234 803 1232.941 803 L 1231.882 803 1232.500 804 M 809 809.500 L 809 810 809.500 810 L 810 810 810 809.500 L 810 809 809.500 809 L 809 809 809 809.500 M 1236 809.500 L 1236 810 1236.500 810 L 1237 810 1237 809.500 L 1237 809 1236.500 809 L 1236 809 1236 809.500 M 1238 813 L 1238 814.333 1238.667 813.667 L 1239.333 813 1238.667 812.333 L 1238 811.667 1238 813 M 807 813.500 L 807 814 807.500 814 L 808 814 808 813.500 L 808 813 807.500 813 L 807 813 807 813.500 M 1240 817 L 1240 818.333 1240.667 817.667 L 1241.333 817 1240.667 816.333 L 1240 815.667 1240 817 M 804.333 817.667 L 805 818.333 805.667 817.667 L 806.333 817 805 817 L 803.667 817 804.333 817.667 M 802.158 821 L 802.158 823.500 802.662 822.250 L 803.167 821 802.662 819.750 L 802.158 818.500 802.158 821 M 1242 820.500 L 1242 821 1242.500 821 L 1243 821 1243 820.500 L 1243 820 1242.500 820 L 1242 820 1242 820.500 M 1244 823 L 1244 824.333 1244.667 823.667 L 1245.333 823 1244.667 822.333 L 1244 821.667 1244 823 M 800.158 825 L 800.158 827.500 800.662 826.250 L 801.167 825 800.662 823.750 L 800.158 822.500 800.158 825 M 1246 827 L 1246 828.333 1246.667 827.667 L 1247.333 827 1246.667 826.333 L 1246 825.667 1246 827 M 798.116 828.095 L 798 829.690 796.100 831.410 L 794.199 833.130 793.693 835.066 L 793.187 837.003 794.093 836.442 L 795 835.882 795 834.498 L 795 833.113 797.091 831.649 L 799.182 830.184 798.707 828.342 L 798.232 826.500 798.116 828.095 M 1251 836 L 1251 837 1252 837 L 1253 837 1253 836 L 1253 835 1252 835 L 1251 835 1251 836 M 791.405 840.155 L 790.691 841.309 791.845 840.595 L 793 839.882 793 839.441 L 793 839 792.559 839 L 792.118 839 791.405 840.155 M 788.872 844.750 L 787.500 846.500 789.250 845.128 L 791 843.755 791 843.378 L 791 843 790.622 843 L 790.245 843 788.872 844.750 M 1255 843.500 L 1255 844 1255.500 844 L 1256 844 1256 843.500 L 1256 843 1255.500 843 L 1255 843 1255 843.500 M 1257 847.500 L 1257 848 1257.500 848 L 1258 848 1258 847.500 L 1258 847 1257.500 847 L 1257 847 1257 847.500 M 1259 849 L 1259 850.333 1259.667 849.667 L 1260.333 849 1259.667 848.333 L 1259 847.667 1259 849 M 786 849.500 L 786 850 786.500 850 L 787 850 787 849.500 L 787 849 786.500 849 L 786 849 786 849.500 M 783.067 854.429 L 780.786 856.857 781.314 858.179 L 781.842 859.500 781.921 858.064 L 782 856.629 784.174 854.314 L 786.349 852 785.849 852 L 785.349 852 783.067 854.429 M 1261 853 L 1261 854.333 1261.667 853.667 L 1262.333 853 1261.667 852.333 L 1261 851.667 1261 853 M 1265 859 L 1265 860.333 1265.667 859.667 L 1266.333 859 1265.667 858.333 L 1265 857.667 1265 859 M 779.158 861 L 779.158 863.500 779.662 862.250 L 780.167 861 779.662 859.750 L 779.158 858.500 779.158 861 M 1266.500 863 L 1267.118 864 1267.559 864 L 1268 864 1268 863 L 1268 862 1266.941 862 L 1265.882 862 1266.500 863 M 777.158 865 L 777.158 867.500 777.662 866.250 L 778.167 865 777.662 863.750 L 777.158 862.500 777.158 865 M 1268.333 866.667 L 1269 867.333 1269.667 866.667 L 1270.333 866 1269 866 L 1267.667 866 1268.333 866.667 M 774.333 868.667 L 775 869.333 775.667 868.667 L 776.333 868 775 868 L 773.667 868 774.333 868.667 M 772 872.500 L 772 873 772.500 873 L 773 873 773 872.500 L 773 872 772.500 872 L 772 872 772 872.500 M 1274 876 L 1274 877.333 1274.667 876.667 L 1275.333 876 1274.667 875.333 L 1274 874.667 1274 876 M 770 876.500 L 770 877 770.500 877 L 771 877 771 876.500 L 771 876 770.500 876 L 770 876 770 876.500 M 1276 880 L 1276 881.333 1276.667 880.667 L 1277.333 880 1276.667 879.333 L 1276 878.667 1276 880 M 767.322 881.250 L 766.526 882.500 763.255 888.957 L 759.985 895.415 761.057 894.343 L 762.129 893.271 765.468 886.635 L 768.806 880 768.462 880 L 768.118 880 767.322 881.250 M 1278 883.500 L 1278 884 1278.500 884 L 1279 884 1279 883.500 L 1279 883 1278.500 883 L 1278 883 1278 883.500 M 1280.079 885.583 L 1280.158 887.500 1280.683 886.188 L 1281.208 884.875 1280.604 884.271 L 1280 883.667 1280.079 885.583 M 1282 889 L 1282 890.333 1282.667 889.667 L 1283.333 889 1282.667 888.333 L 1282 887.667 1282 889 M 1283.500 893 L 1284.118 894 1284.559 894 L 1285 894 1285 893 L 1285 892 1283.941 892 L 1282.882 892 1283.500 893 M 758.079 897.583 L 758.158 899.500 758.683 898.188 L 759.208 896.875 758.604 896.271 L 758 895.667 758.079 897.583 M 1287.333 898.667 L 1288 899.333 1288.667 898.667 L 1289.333 898 1288 898 L 1286.667 898 1287.333 898.667 M 756 902.500 L 756 903 756.500 903 L 757 903 757 902.500 L 757 902 756.500 902 L 756 902 756 902.500 M 754 904.500 L 754 905 754.500 905 L 755 905 755 904.500 L 755 904 754.500 904 L 754 904 754 904.500 M 1293 908 L 1293 909.333 1293.667 908.667 L 1294.333 908 1293.667 907.333 L 1293 906.667 1293 908 M 751.333 908.667 L 752 909.333 752.667 908.667 L 753.333 908 752 908 L 750.667 908 751.333 908.667 M 1295 912 L 1295 913.333 1295.667 912.667 L 1296.333 912 1295.667 911.333 L 1295 910.667 1295 912 M 749 912.500 L 749 913 749.500 913 L 750 913 750 912.500 L 750 912 749.500 912 L 749 912 749 912.500 M 1297 916 L 1297 917.333 1297.667 916.667 L 1298.333 916 1297.667 915.333 L 1297 914.667 1297 916 M 747 916.500 L 747 917 747.500 917 L 748 917 748 916.500 L 748 916 747.500 916 L 747 916 747 916.500 M 743.086 923.341 L 740.672 928.500 739.086 930.483 L 737.500 932.466 739.227 931.129 L 740.954 929.793 743.611 924.364 L 746.267 918.934 745.884 918.558 L 745.500 918.182 743.086 923.341 M 1299 919.500 L 1299 920 1299.500 920 L 1300 920 1300 919.500 L 1300 919 1299.500 919 L 1299 919 1299 919.500 M 1301.079 921.583 L 1301.158 923.500 1301.683 922.188 L 1302.208 920.875 1301.604 920.271 L 1301 919.667 1301.079 921.583 M 1302.500 925 L 1303.118 926 1303.559 926 L 1304 926 1304 925 L 1304 924 1302.941 924 L 1301.882 924 1302.500 925 M 1304.500 929 L 1305.118 930 1305.559 930 L 1306 930 1306 929 L 1306 928 1304.941 928 L 1303.882 928 1304.500 929 M 737 934.500 L 737 935 737.500 935 L 738 935 738 934.500 L 738 934 737.500 934 L 737 934 737 934.500 M 735 938.500 L 735 939 735.500 939 L 736 939 736 938.500 L 736 938 735.500 938 L 735 938 735 938.500 M 1310 938.500 L 1310 939 1310.500 939 L 1311 939 1311 938.500 L 1311 938 1310.500 938 L 1310 938 1310 938.500 M 1312 942 L 1312 943.333 1312.667 942.667 L 1313.333 942 1312.667 941.333 L 1312 940.667 1312 942 M 733 942.500 L 733 943 733.500 943 L 734 943 734 942.500 L 734 942 733.500 942 L 733 942 733 942.500 M 731 944.500 L 731 945 731.500 945 L 732 945 732 944.500 L 732 944 731.500 944 L 731 944 731 944.500 M 1314 946 L 1314 947.333 1314.667 946.667 L 1315.333 946 1314.667 945.333 L 1314 944.667 1314 946 M 730.079 948.583 L 730.158 950.500 730.683 949.188 L 731.208 947.875 730.604 947.271 L 730 946.667 730.079 948.583 M 1316.336 956 L 1316.336 963.500 1316.728 959.750 L 1317.121 956 1316.728 952.250 L 1316.336 948.500 1316.336 956 M 728.217 955 L 728.064 960.500 729.532 962.441 L 731 964.382 731 963.391 L 731 962.400 730.057 961.450 L 729.115 960.500 728.742 955 L 728.370 949.500 728.217 955 M 1314 965 L 1314 966.333 1314.667 965.667 L 1315.333 965 1314.667 964.333 L 1314 963.667 1314 965 M 730 966.500 L 730 967 730.500 967 L 731 967 731 966.500 L 731 966 730.500 966 L 730 966 730 966.500 M 1312 967.500 L 1312 968 1312.500 968 L 1313 968 1313 967.500 L 1313 967 1312.500 967 L 1312 967 1312 967.500 M 732 968.500 L 732 969 732.500 969 L 733 969 733 968.500 L 733 968 732.500 968 L 732 968 732 968.500 M 1308.750 972.167 L 1307 974 1308.393 974 L 1309.786 974 1310.417 972.357 L 1311.047 970.714 1310.774 970.524 L 1310.500 970.333 1308.750 972.167 M 1304.500 975 L 1303.882 976 1304.941 976 L 1306 976 1306 975 L 1306 974 1305.559 974 L 1305.118 974 1304.500 975 M 1300 977 L 1298.500 977.969 1300.250 977.985 L 1302 978 1302 977 L 1302 976 1301.750 976.015 L 1301.500 976.031 1300 977 M 1024 1387.500 L 1024 1592 1315.099 1592 L 1606.198 1592 1609.599 1590.386 L 1613 1588.772 1613 1587.886 L 1613 1587 1613.987 1587 L 1614.974 1587 1619.987 1582.013 L 1625 1577.026 1625 1575.513 L 1625 1574 1626 1574 L 1627 1574 1627 1572.360 L 1627 1570.720 1628.518 1569.610 L 1630.035 1568.500 1633.432 1562 L 1636.829 1555.500 1639.995 1549.188 L 1643.162 1542.875 1644.581 1542.331 L 1646 1541.786 1646 1539.893 L 1646 1538 1647 1538 L 1648 1538 1648 1536 L 1648 1534 1649 1534 L 1650 1534 1650 1532.107 L 1650 1530.214 1651.452 1529.657 L 1652.905 1529.099 1654.952 1524.605 L 1657 1520.110 1657 1519.177 L 1657 1518.245 1658.512 1516.990 L 1660.024 1515.735 1663.093 1509.305 L 1666.162 1502.875 1667.581 1502.331 L 1669 1501.786 1669 1499.893 L 1669 1498 1670 1498 L 1671 1498 1671 1496.122 L 1671 1494.245 1672.500 1493 L 1674 1491.755 1674 1490.378 L 1674 1489 1675 1489 L 1676 1489 1676 1487 L 1676 1485 1677 1485 L 1678 1485 1678 1483.107 L 1678 1481.214 1679.419 1480.669 L 1680.838 1480.125 1683.907 1473.695 L 1686.976 1467.265 1688.488 1466.010 L 1690 1464.755 1690 1463.378 L 1690 1462 1690.889 1462 L 1691.777 1462 1692.438 1458.478 L 1693.099 1454.955 1695.050 1453.737 L 1697 1452.519 1697 1450.759 L 1697 1449 1698 1449 L 1699 1449 1699 1447 L 1699 1445 1700 1445 L 1701 1445 1701 1443.107 L 1701 1441.214 1702.419 1440.669 L 1703.838 1440.125 1707.002 1433.812 L 1710.166 1427.500 1712.445 1423.232 L 1714.723 1418.964 1716.361 1417.153 L 1718 1415.343 1718 1414.171 L 1718 1413 1719 1413 L 1720 1413 1720 1411 L 1720 1409 1721 1409 L 1722 1409 1722 1407.367 L 1722 1405.735 1723.750 1404.117 L 1725.500 1402.500 1727.616 1398.407 L 1729.732 1394.314 1727.879 1393.157 L 1726.027 1392 1721.573 1392 L 1717.118 1392 1716.500 1391 L 1715.882 1390 1712.500 1390 L 1709.118 1390 1708.500 1389 L 1707.882 1388 1705.441 1388 L 1703 1388 1703 1387 L 1703 1386 1699 1386 L 1695 1386 1695 1385 L 1695 1384 1693.030 1384 L 1691.061 1384 1687.500 1382 L 1683.939 1380 1682.319 1380 L 1680.699 1380 1675.100 1377.287 L 1669.500 1374.574 1669.167 1373.787 L 1668.833 1373 1666.917 1373 L 1665 1373 1665 1372 L 1665 1371 1663.221 1371 L 1661.442 1371 1660 1369 L 1658.558 1367 1657.402 1367 L 1656.245 1367 1654.914 1365.396 L 1653.582 1363.792 1651.541 1362.853 L 1649.500 1361.914 1647.257 1360.618 L 1645.014 1359.322 1643.178 1357.661 L 1641.343 1356 1640.410 1356 L 1639.477 1356 1623.738 1340.239 L 1608 1324.477 1608 1323.543 L 1608 1322.609 1605.374 1319.868 L 1602.748 1317.128 1601.417 1314.814 L 1600.086 1312.500 1599.147 1310.459 L 1598.208 1308.418 1596.604 1307.086 L 1595 1305.755 1595 1304.378 L 1595 1303 1594 1303 L 1593 1303 1593 1301 L 1593 1299 1592 1299 L 1591 1299 1591 1297 L 1591 1295 1590 1295 L 1589 1295 1589 1293.083 L 1589 1291.167 1588.213 1290.833 L 1587.426 1290.500 1584.713 1284.900 L 1582 1279.301 1582 1277.209 L 1582 1275.118 1581 1274.500 L 1580 1273.882 1580 1271.500 L 1580 1269.118 1579 1268.500 L 1578 1267.882 1578 1265.441 L 1578 1263 1577 1263 L 1576 1263 1576 1260 L 1576 1257 1575 1257 L 1574 1257 1574 1253.559 L 1574 1250.118 1573 1249.500 L 1572 1248.882 1572 1244.441 L 1572 1240 1571 1240 L 1570 1240 1570 1230.500 L 1570 1221 1569 1221 L 1568 1221 1568 1209 L 1568 1197 1569 1197 L 1570 1197 1570 1190 L 1570 1183 1297 1183 L 1024 1183 1024 1387.500 M 218 1187.500 L 218 1188 218.500 1188 L 219 1188 219 1187.500 L 219 1187 218.500 1187 L 218 1187 218 1187.500 M 216 1189.500 L 216 1190 216.500 1190 L 217 1190 217 1189.500 L 217 1189 216.500 1189 L 216 1189 216 1189.500 M 214 1191.500 L 214 1192 214.500 1192 L 215 1192 215 1191.500 L 215 1191 214.500 1191 L 214 1191 214 1191.500 M 219 1219.500 L 219 1220 219.500 1220 L 220 1220 220 1219.500 L 220 1219 219.500 1219 L 219 1219 219 1219.500 M 221 1223.500 L 221 1224 221.500 1224 L 222 1224 222 1223.500 L 222 1223 221.500 1223 L 221 1223 221 1223.500 M 223 1227.500 L 223 1228 223.500 1228 L 224 1228 224 1227.500 L 224 1227 223.500 1227 L 223 1227 223 1227.500 M 226.731 1234.080 L 227.351 1236.448 227.788 1235.137 L 228.225 1233.825 227.168 1232.768 L 226.112 1231.712 226.731 1234.080 M 229.079 1238.583 L 229.158 1240.500 229.683 1239.188 L 230.208 1237.875 229.604 1237.271 L 229 1236.667 229.079 1238.583 M 231 1241.500 L 231 1242 231.500 1242 L 232 1242 232 1241.500 L 232 1241 231.500 1241 L 231 1241 231 1241.500 M 233 1245.500 L 233 1246 233.500 1246 L 234 1246 234 1245.500 L 234 1245 233.500 1245 L 233 1245 233 1245.500 M 242 1259.500 L 242 1260 242.500 1260 L 243 1260 243 1259.500 L 243 1259 242.500 1259 L 242 1259 242 1259.500 M 244 1263.500 L 244 1264 244.500 1264 L 245 1264 245 1263.500 L 245 1263 244.500 1263 L 244 1263 244 1263.500 M 246.079 1266.583 L 246.158 1268.500 246.683 1267.188 L 247.208 1265.875 246.604 1265.271 L 246 1264.667 246.079 1266.583 M 249 1272.500 L 249 1273 249.500 1273 L 250 1273 250 1272.500 L 250 1272 249.500 1272 L 249 1272 249 1272.500 M 256 1285.500 L 256 1286 256.500 1286 L 257 1286 257 1285.500 L 257 1285 256.500 1285 L 256 1285 256 1285.500 M 263 1297.500 L 263 1298 263.500 1298 L 264 1298 264 1297.500 L 264 1297 263.500 1297 L 263 1297 263 1297.500 M 265 1301 L 265 1302.333 265.667 1301.667 L 266.333 1301 265.667 1300.333 L 265 1299.667 265 1301 M 270 1308.500 L 270 1309 270.500 1309 L 271 1309 271 1308.500 L 271 1308 270.500 1308 L 270 1308 270 1308.500 M 284 1332.500 L 284 1333 284.500 1333 L 285 1333 285 1332.500 L 285 1332 284.500 1332 L 284 1332 284 1332.500 M 284 1334.500 L 284 1335 284.500 1335 L 285 1335 285 1334.500 L 285 1334 284.500 1334 L 284 1334 284 1334.500 M 293 1348.500 L 293 1349 293.500 1349 L 294 1349 294 1348.500 L 294 1348 293.500 1348 L 293 1348 293 1348.500 M 295 1352.500 L 295 1353 295.500 1353 L 296 1353 296 1352.500 L 296 1352 295.500 1352 L 295 1352 295 1352.500 M 297 1354.500 L 297 1355 297.500 1355 L 298 1355 298 1354.500 L 298 1354 297.500 1354 L 297 1354 297 1354.500 M 300.237 1362.240 L 301.500 1364.935 301.866 1363.869 L 302.232 1362.804 300.603 1361.174 L 298.973 1359.545 300.237 1362.240 M 303 1366.500 L 303 1367 303.500 1367 L 304 1367 304 1366.500 L 304 1366 303.500 1366 L 303 1366 303 1366.500 M 305 1370.500 L 305 1371 305.500 1371 L 306 1371 306 1370.500 L 306 1370 305.500 1370 L 305 1370 305 1370.500 M 307 1374.500 L 307 1375 307.500 1375 L 308 1375 308 1374.500 L 308 1374 307.500 1374 L 307 1374 307 1374.500 M 316 1388.500 L 316 1389 316.500 1389 L 317 1389 317 1388.500 L 317 1388 316.500 1388 L 316 1388 316 1388.500 M 320.079 1395.583 L 320.158 1397.500 320.683 1396.188 L 321.208 1394.875 320.604 1394.271 L 320 1393.667 320.079 1395.583 M 323 1401.500 L 323 1402 323.500 1402 L 324 1402 324 1401.500 L 324 1401 323.500 1401 L 323 1401 323 1401.500 M 330 1414.500 L 330 1415 330.500 1415 L 331 1415 331 1414.500 L 331 1414 330.500 1414 L 330 1414 330 1414.500 M 337 1426 L 337 1427.333 337.667 1426.667 L 338.333 1426 337.667 1425.333 L 337 1424.667 337 1426 M 344 1437.500 L 344 1438 344.500 1438 L 345 1438 345 1437.500 L 345 1437 344.500 1437 L 344 1437 344 1437.500 M 346 1441.500 L 346 1442 346.500 1442 L 347 1442 347 1441.500 L 347 1441 346.500 1441 L 346 1441 346 1441.500 M 351 1450.500 L 351 1451 351.500 1451 L 352 1451 352 1450.500 L 352 1450 351.500 1450 L 351 1450 351 1450.500 M 356.079 1458.583 L 356.158 1460.500 356.683 1459.188 L 357.208 1457.875 356.604 1457.271 L 356 1456.667 356.079 1458.583 M 358 1461.500 L 358 1462 358.500 1462 L 359 1462 359 1461.500 L 359 1461 358.500 1461 L 358 1461 358 1461.500 M 358 1463.500 L 358 1464 358.500 1464 L 359 1464 359 1463.500 L 359 1463 358.500 1463 L 358 1463 358 1463.500 M 367 1477.500 L 367 1478 367.500 1478 L 368 1478 368 1477.500 L 368 1477 367.500 1477 L 367 1477 367 1477.500 M 369 1481.500 L 369 1482 369.500 1482 L 370 1482 370 1481.500 L 370 1481 369.500 1481 L 369 1481 369 1481.500 M 371 1483.500 L 371 1484 371.500 1484 L 372 1484 372 1483.500 L 372 1483 371.500 1483 L 371 1483 371 1483.500 M 373.006 1487.636 L 373 1488.771 374.494 1491.636 L 375.988 1494.500 375.994 1493.364 L 376 1492.229 374.506 1489.364 L 373.012 1486.500 373.006 1487.636 M 377 1495.500 L 377 1496 377.500 1496 L 378 1496 378 1495.500 L 378 1495 377.500 1495 L 377 1495 377 1495.500 M 379 1499.500 L 379 1500 379.500 1500 L 380 1500 380 1499.500 L 380 1499 379.500 1499 L 379 1499 379 1499.500 M 381 1503.500 L 381 1504 381.500 1504 L 382 1504 382 1503.500 L 382 1503 381.500 1503 L 381 1503 381 1503.500 M 392.079 1520.583 L 392.158 1522.500 392.683 1521.188 L 393.208 1519.875 392.604 1519.271 L 392 1518.667 392.079 1520.583 M 394 1524 L 394 1525.333 394.667 1524.667 L 395.333 1524 394.667 1523.333 L 394 1522.667 394 1524 M 397 1530.500 L 397 1531 397.500 1531 L 398 1531 398 1530.500 L 398 1530 397.500 1530 L 397 1530 397 1530.500 M 402 1539.500 L 402 1540 402.500 1540 L 403 1540 403 1539.500 L 403 1539 402.500 1539 L 402 1539 402 1539.500 M 404 1543.500 L 404 1544 404.500 1544 L 405 1544 405 1543.500 L 405 1543 404.500 1543 L 404 1543 404 1543.500 M 411 1555 L 411 1556.333 411.667 1555.667 L 412.333 1555 411.667 1554.333 L 411 1553.667 411 1555 M 418 1566.500 L 418 1567 418.500 1567 L 419 1567 419 1566.500 L 419 1566 418.500 1566 L 418 1566 418 1566.500 M 420 1570.500 L 420 1571 420.500 1571 L 421 1571 421 1570.500 L 421 1570 420.500 1570 L 420 1570 420 1570.500 M 425 1579.500 L 425 1580 425.500 1580 L 426 1580 426 1579.500 L 426 1579 425.500 1579 L 425 1579 425 1579.500 M 428.500 1583 L 430.310 1585 430.810 1585 L 431.310 1585 429.500 1583 L 427.690 1581 427.190 1581 L 426.690 1581 428.500 1583" stroke="none" fill="#2081e2" fill-rule="evenodd"/><path d="M 496.962 47.438 L 496.024 48.376 484.262 49.303 L 472.500 50.230 468.500 50.514 L 464.500 50.797 463 51.340 L 461.500 51.882 457 52.409 L 452.500 52.936 448 53.571 L 443.500 54.205 442.550 55.102 L 441.600 56 437.359 56 L 433.118 56 432.500 57 L 431.882 58 428 58 L 424.118 58 423.500 59 L 422.882 60 419.500 60 L 416.118 60 415.500 61 L 414.882 62 411.441 62 L 408 62 408 63 L 408 64 405.059 64 L 402.118 64 401.500 65 L 400.882 66 398.427 66 L 395.973 66 394.236 66.906 L 392.500 67.812 386 69.500 L 379.500 71.188 377.764 72.094 L 376.027 73 374.014 73 L 372 73 372 74 L 372 75 369.559 75 L 367.118 75 366.500 76 L 365.882 77 363.441 77 L 361 77 361 78 L 361 79 358.500 79 L 356 79 356 80 L 356 81 353.500 81 L 351 81 351 81.756 L 351 82.512 348.250 83.632 L 345.500 84.753 338.500 87.612 L 331.500 90.471 315.500 98.594 L 299.500 106.717 295 109.108 L 290.500 111.500 290.167 112.250 L 289.833 113 288.375 113 L 286.916 113 284.941 114.840 L 282.966 116.680 280.233 118.085 L 277.500 119.491 270.500 123.923 L 263.500 128.356 263 128.928 L 262.500 129.500 260.884 130.500 L 259.267 131.500 251.811 136.661 L 244.355 141.821 238.295 146.661 L 232.236 151.500 228.407 154.500 L 224.579 157.500 214.039 166.604 L 203.500 175.708 190.084 189.104 L 176.667 202.500 166.584 214.114 L 156.500 225.727 154.517 228.114 L 152.534 230.500 145.017 240.599 L 137.500 250.697 132.889 257.099 L 128.278 263.500 121.566 274.500 L 114.854 285.500 113.927 285.833 L 113 286.167 113 288.083 L 113 290 112.250 290.008 L 111.500 290.016 110.422 292.258 L 109.345 294.500 103.422 306 L 97.500 317.500 96.750 317.833 L 96 318.167 96 320.083 L 96 322 95 322 L 94 322 94 324 L 94 326 93 326 L 92 326 92 327.800 L 92 329.600 91.163 330.550 L 90.327 331.500 88.059 337 L 85.792 342.500 84.294 346 L 82.796 349.500 81.781 352 L 80.767 354.500 79.883 356.236 L 79 357.973 79 359.986 L 79 362 78 362 L 77 362 77 363.941 L 77 365.882 76 366.500 L 75 367.118 75 369.073 L 75 371.027 74.117 372.764 L 73.233 374.500 72.226 377 L 71.218 379.500 69.609 384.865 L 68 390.230 68 391.628 L 68 393.027 67.123 394.764 L 66.246 396.500 65.123 400.071 L 64 403.642 64 405.762 L 64 407.882 63 408.500 L 62 409.118 62 412.059 L 62 415 61 415 L 60 415 60 419 L 60 423 59 423 L 58 423 58 427.500 L 58 432 57 432 L 56 432 56 436.500 L 56 441 55.093 441 L 54.185 441 53.682 446.250 L 53.179 451.500 51.544 463 L 49.909 474.500 49.156 484.519 L 48.404 494.538 47.700 495.677 L 46.996 496.815 46.996 1023.470 L 46.996 1550.124 48.083 1552.154 L 49.169 1554.184 48.870 1561.342 L 48.572 1568.500 49.306 1569.687 L 50.040 1570.874 51.050 1578.929 L 52.060 1586.984 52.194 1590.534 L 52.327 1594.084 53.164 1594.601 L 54 1595.118 54 1600.059 L 54 1605 55 1605 L 56 1605 56 1609.500 L 56 1614 57 1614 L 58 1614 58 1618.500 L 58 1623 59 1623 L 60 1623 60 1627 L 60 1631 61 1631 L 62 1631 62 1634.500 L 62 1638 63 1638 L 64 1638 64 1640.453 L 64 1642.906 64.909 1645.203 L 65.819 1647.500 67.462 1653.121 L 69.105 1658.741 69.265 1660.871 L 69.426 1663 70.213 1663 L 71 1663 71 1666 L 71 1669 72 1669 L 73 1669 73 1671.441 L 73 1673.882 74 1674.500 L 75 1675.118 75 1677.559 L 75 1680 76 1680 L 77 1680 77 1681.514 L 77 1683.027 77.883 1684.764 L 78.767 1686.500 79.883 1689.250 L 81 1692 81.898 1694.250 L 82.796 1696.500 84.294 1700 L 85.792 1703.500 88.059 1709 L 90.327 1714.500 91.163 1715.450 L 92 1716.400 92 1718.200 L 92 1720 93 1720 L 94 1720 94 1722 L 94 1724 95 1724 L 96 1724 96 1725.917 L 96 1727.833 96.784 1728.167 L 97.568 1728.500 101.294 1736 L 105.021 1743.500 108.911 1750.676 L 112.802 1757.852 115.901 1762.356 L 119 1766.860 119 1767.406 L 119 1767.951 125.457 1777.726 L 131.914 1787.500 137.571 1795.500 L 143.229 1803.500 148.210 1809.851 L 153.192 1816.201 154.846 1818.239 L 156.500 1820.277 165.987 1831.388 L 175.474 1842.500 190.478 1857.409 L 205.481 1872.318 216.490 1881.688 L 227.500 1891.059 228.500 1891.779 L 229.500 1892.500 234.500 1896.574 L 239.500 1900.648 246.500 1905.540 L 253.500 1910.432 254 1910.966 L 254.500 1911.500 256.074 1912.500 L 257.648 1913.500 267.710 1920.250 L 277.772 1927 278.456 1927 L 279.140 1927 283.500 1930 L 287.860 1933 288.847 1933 L 289.833 1933 290.167 1933.750 L 290.500 1934.500 293.500 1936.261 L 296.500 1938.022 309 1944.231 L 321.500 1950.439 321.833 1951.219 L 322.167 1952 324.083 1952 L 326 1952 326 1953 L 326 1954 327.301 1954 L 328.601 1954 331.293 1955.250 L 333.984 1956.500 333.992 1957.250 L 334 1958 336.014 1958 L 338.027 1958 339.764 1958.952 L 341.500 1959.903 345.500 1961.554 L 349.500 1963.204 352 1964.219 L 354.500 1965.233 356.236 1966.117 L 357.973 1967 359.986 1967 L 362 1967 362 1968 L 362 1969 364.500 1969 L 367 1969 367 1970 L 367 1971 369.500 1971 L 372 1971 372 1972 L 372 1973 374.441 1973 L 376.882 1973 377.500 1974 L 378.118 1975 380.559 1975 L 383 1975 383 1975.868 L 383 1976.737 386.750 1977.342 L 390.500 1977.948 396 1979.560 L 401.500 1981.171 405 1982.179 L 408.500 1983.186 411.759 1983.704 L 415.019 1984.221 415.568 1985.110 L 416.118 1986 419.500 1986 L 422.882 1986 423.500 1987 L 424.118 1988 428.059 1988 L 432 1988 432 1989 L 432 1990 436.441 1990 L 440.882 1990 441.500 1991 L 442.118 1992 446.500 1992 L 450.882 1992 451.500 1993 L 452.118 1994 457.559 1994 L 463 1994 463 1994.891 L 463 1995.781 469.578 1995.880 L 476.156 1995.979 477.126 1996.578 L 478.095 1997.177 487.043 1997.527 L 495.991 1997.876 496.906 1998.442 L 497.821 1999.008 1023.411 1999.254 L 1549 1999.500 1549.250 1998.762 L 1549.500 1998.023 1558.788 1997.547 L 1568.076 1997.071 1568.931 1996.543 L 1569.785 1996.015 1575.915 1995.876 L 1582.044 1995.738 1582.581 1994.869 L 1583.118 1994 1588.500 1994 L 1593.882 1994 1594.500 1993 L 1595.118 1992 1599.500 1992 L 1603.882 1992 1604.500 1991 L 1605.118 1990 1609.559 1990 L 1614 1990 1614 1989 L 1614 1988 1618.500 1988 L 1623 1988 1623 1987 L 1623 1986 1626.441 1986 L 1629.882 1986 1630.500 1985 L 1631.118 1984 1634 1984 L 1636.882 1984 1637.432 1983.110 L 1637.981 1982.221 1641.241 1981.712 L 1644.500 1981.203 1650.500 1979.520 L 1656.500 1977.837 1659.750 1977.309 L 1663 1976.781 1663 1975.891 L 1663 1975 1666 1975 L 1669 1975 1669 1974 L 1669 1973 1671.441 1973 L 1673.882 1973 1674.500 1972 L 1675.118 1971 1677.559 1971 L 1680 1971 1680 1970 L 1680 1969 1681.514 1969 L 1683.027 1969 1684.764 1968.117 L 1686.500 1967.233 1689.250 1966.117 L 1692 1965 1694.250 1964.102 L 1696.500 1963.204 1700 1961.680 L 1703.500 1960.155 1707.750 1958.834 L 1712 1957.513 1712 1956.757 L 1712 1956 1714 1956 L 1716 1956 1716 1955 L 1716 1954 1718 1954 L 1720 1954 1720 1953 L 1720 1952 1721.917 1952 L 1723.833 1952 1724.167 1951.219 L 1724.500 1950.439 1737 1944.212 L 1749.500 1937.986 1754 1935.375 L 1758.500 1932.764 1761.154 1930.882 L 1763.809 1929 1764.904 1929 L 1766 1929 1766 1928 L 1766 1927 1767.114 1927 L 1768.228 1927 1778.364 1920.376 L 1788.500 1913.753 1788.833 1912.876 L 1789.167 1912 1790.500 1912 L 1791.833 1912 1792.167 1911.231 L 1792.500 1910.463 1799.500 1905.555 L 1806.500 1900.648 1811.485 1896.574 L 1816.469 1892.500 1817.985 1891.329 L 1819.500 1890.159 1825.881 1884.829 L 1832.262 1879.500 1834.881 1877.519 L 1837.500 1875.539 1857 1855.886 L 1876.500 1836.234 1879.693 1832.367 L 1882.885 1828.500 1891.754 1817.500 L 1900.622 1806.500 1905.557 1799.500 L 1910.493 1792.500 1911.996 1790.638 L 1913.500 1788.777 1914.750 1787.460 L 1916 1786.143 1916 1785.071 L 1916 1784 1917 1784 L 1918 1784 1918 1783.031 L 1918 1782.062 1922.500 1775.106 L 1927 1768.150 1927 1767.075 L 1927 1766 1928 1766 L 1929 1766 1929 1764.904 L 1929 1763.809 1930.882 1761.154 L 1932.764 1758.500 1935.375 1754 L 1937.986 1749.500 1944.212 1737 L 1950.439 1724.500 1951.219 1724.167 L 1952 1723.833 1952 1721.917 L 1952 1720 1953 1720 L 1954 1720 1954 1718 L 1954 1716 1955 1716 L 1956 1716 1956 1714.200 L 1956 1712.400 1956.829 1711.450 L 1957.658 1710.500 1961.439 1701 L 1965.219 1691.500 1966.110 1689.250 L 1967 1687 1968.134 1684.250 L 1969.268 1681.500 1970.250 1679 L 1971.233 1676.500 1972.117 1674.764 L 1973 1673.027 1973 1671.014 L 1973 1669 1974 1669 L 1975 1669 1975 1666.486 L 1975 1663.973 1975.908 1662.236 L 1976.815 1660.500 1978.408 1655.135 L 1980 1649.770 1980 1647.944 L 1980 1646.118 1981 1645.500 L 1982 1644.882 1982 1642 L 1982 1639.118 1983 1638.500 L 1984 1637.882 1984 1634.500 L 1984 1631.118 1985 1630.500 L 1986 1629.882 1986 1626.441 L 1986 1623 1987 1623 L 1988 1623 1988 1618.500 L 1988 1614 1989 1614 L 1990 1614 1990 1609.500 L 1990 1605 1991 1605 L 1992 1605 1992 1600.059 L 1992 1595.118 1993 1594.500 L 1994 1593.882 1994 1589 L 1994 1584.118 1994.792 1583.629 L 1995.584 1583.139 1995.834 1576.353 L 1996.085 1569.566 1996.792 1569.033 L 1997.500 1568.500 1997.696 1560.111 L 1997.893 1551.722 1998.451 1550.267 L 1999.009 1548.812 1999.007 1022.814 L 1999.004 496.815 1998.440 495.903 L 1997.876 494.991 1997.520 486.245 L 1997.163 477.500 1996.642 476 L 1996.122 474.500 1995.507 469.500 L 1994.893 464.500 1994.334 457.750 L 1993.774 451 1992.887 451 L 1992 451 1992 446 L 1992 441 1991 441 L 1990 441 1990 436.500 L 1990 432 1989 432 L 1988 432 1988 427.500 L 1988 423 1987 423 L 1986 423 1986 419.559 L 1986 416.118 1985 415.500 L 1984 414.882 1984 411.927 L 1984 408.973 1983.097 407.236 L 1982.195 405.500 1981.157 401.500 L 1980.120 397.500 1978.560 392.312 L 1977 387.124 1977 385.062 L 1977 383 1976 383 L 1975 383 1975 380 L 1975 377 1974 377 L 1973 377 1973 374.559 L 1973 372.118 1972 371.500 L 1971 370.882 1971 368.441 L 1971 366 1970 366 L 1969 366 1969 363.500 L 1969 361 1968 361 L 1967 361 1967 358.500 L 1967 356 1966 356 L 1965 356 1965 353.500 L 1965 351 1964 351 L 1963 351 1963 349.059 L 1963 347.118 1962.111 346.568 L 1961.222 346.019 1960.546 343.327 L 1959.870 340.635 1957.935 336.630 L 1956 332.624 1956 331.312 L 1956 330 1955 330 L 1954 330 1954 328 L 1954 326 1953 326 L 1952 326 1952 324.083 L 1952 322.167 1951.219 321.833 L 1950.439 321.500 1944.212 309 L 1937.986 296.500 1935.375 292 L 1932.764 287.500 1930.882 284.846 L 1929 282.191 1929 281.096 L 1929 280 1928 280 L 1927 280 1927 278.886 L 1927 277.772 1920.250 267.710 L 1913.500 257.648 1912.500 256.074 L 1911.500 254.500 1910.966 254 L 1910.432 253.500 1905.540 246.500 L 1900.648 239.500 1896.574 234.515 L 1892.500 229.531 1891 227.613 L 1889.500 225.695 1880.930 215.593 L 1872.361 205.490 1856.597 189.708 L 1840.833 173.927 1830.167 164.890 L 1819.500 155.853 1817.851 154.522 L 1816.201 153.192 1809.851 148.210 L 1803.500 143.229 1795.500 137.571 L 1787.500 131.914 1777.726 125.457 L 1767.951 119 1767.406 119 L 1766.860 119 1762.500 116 L 1758.140 113 1757.070 113 L 1756 113 1755.992 112.250 L 1755.984 111.500 1753.742 110.422 L 1751.500 109.345 1740 103.422 L 1728.500 97.500 1728.167 96.750 L 1727.833 96 1725.917 96 L 1724 96 1724 95 L 1724 94 1722 94 L 1720 94 1720 93 L 1720 92 1718.200 92 L 1716.400 92 1715.450 91.163 L 1714.500 90.327 1709 88.059 L 1703.500 85.792 1700 84.294 L 1696.500 82.796 1694 81.781 L 1691.500 80.767 1689.764 79.883 L 1688.027 79 1686.014 79 L 1684 79 1684 78 L 1684 77 1681.500 77 L 1679 77 1679 76 L 1679 75 1676.986 75 L 1674.973 75 1672.986 74 L 1671 73 1669.014 72 L 1667.027 71 1665.014 71 L 1663 71 1663 70 L 1663 69 1662.250 69.171 L 1661.500 69.342 1656.738 68.556 L 1651.975 67.769 1651.429 66.885 L 1650.882 66 1648 66 L 1645.118 66 1644.500 65 L 1643.882 64 1641 64 L 1638.118 64 1637.500 63 L 1636.882 62 1634 62 L 1631.118 62 1630.500 61 L 1629.882 60 1626.500 60 L 1623.118 60 1622.500 59 L 1621.882 58 1617.941 58 L 1614 58 1614 57 L 1614 56 1609.559 56 L 1605.118 56 1604.500 55 L 1603.882 54 1599.500 54 L 1595.118 54 1594.500 53 L 1593.882 52 1588.441 52 L 1583 52 1582.996 51.250 L 1582.993 50.500 1575.781 50.353 L 1568.569 50.206 1568.269 49.307 L 1567.969 48.407 1561.719 48.805 L 1555.468 49.203 1551.377 48.102 L 1547.286 47 1022.593 46.750 L 497.900 46.500 496.962 47.438 M 1018 462 L 1018 463 1015.674 463 L 1013.349 463 1011 465.500 L 1008.651 468 1006.826 468 L 1005 468 1005 470 L 1005 472 1004 472 L 1003 472 1003 473.779 L 1003 475.558 1001 477 L 999 478.442 999 480.221 L 999 482 998.237 482 L 997.474 482 996.487 483.908 L 995.500 485.815 992.217 492.369 L 988.935 498.922 988 499.500 L 987.065 500.078 983.952 506.601 L 980.838 513.125 979.517 513.632 L 978.197 514.139 977.553 517.569 L 976.909 521 975.955 521 L 975 521 975 522.779 L 975 524.558 973 526 L 971 527.442 971 529.221 L 971 531 970 531 L 969 531 969 532.171 L 969 533.343 967.374 535.139 L 965.748 536.936 962.470 543.218 L 959.192 549.500 956.393 555 L 953.593 560.500 951.797 562.117 L 950 563.735 950 565.367 L 950 567 949 567 L 948 567 948 569 L 948 571 947 571 L 946 571 946 572.171 L 946 573.343 944.361 575.153 L 942.723 576.964 940.445 581.232 L 938.166 585.500 935.002 591.812 L 931.838 598.125 930.419 598.669 L 929 599.214 929 601.107 L 929 603 928 603 L 927 603 927 605 L 927 607 926 607 L 925 607 925 608.345 L 925 609.690 923.067 611.439 L 921.135 613.188 921.674 614.594 L 922.214 616 921.107 616 L 920 616 920 617.893 L 920 619.786 918.581 620.331 L 917.162 620.875 914.093 627.305 L 911.024 633.735 909.718 634.819 L 908.411 635.904 907.019 639.452 L 905.627 643 904.706 643 L 903.786 643 904.326 644.406 L 904.865 645.812 902.933 647.561 L 901 649.310 901 650.655 L 901 652 900 652 L 899 652 899 654 L 899 656 898 656 L 897 656 897 657.893 L 897 659.786 895.548 660.343 L 894.095 660.901 892.050 665.390 L 890.005 669.879 888.941 670.536 L 887.877 671.194 886.772 673.847 L 885.668 676.500 885.500 677 L 885.332 677.500 884.270 680.041 L 883.208 682.582 881.604 683.914 L 880 685.245 880 686.622 L 880 688 879 688 L 878 688 878 690 L 878 692 877 692 L 876 692 876 693.633 L 876 695.265 874.203 696.883 L 872.407 698.500 869.610 704 L 866.813 709.500 864.545 713.768 L 862.277 718.036 860.784 719.768 L 859.291 721.500 857.901 724.750 L 856.512 728 855.756 728 L 855 728 855 729.779 L 855 731.558 853 733 L 851 734.442 851 736.221 L 851 738 850.079 738 L 849.159 738 848.445 741.249 L 847.732 744.498 845.866 746.116 L 844 747.735 844 749.367 L 844 751 843.244 751 L 842.488 751 841.099 754.250 L 839.709 757.500 838.216 759.232 L 836.723 760.964 834.455 765.232 L 832.187 769.500 829.390 775 L 826.593 780.500 824.797 782.117 L 823 783.735 823 785.367 L 823 787 822 787 L 821 787 821 789 L 821 791 820 791 L 819 791 819 792.171 L 819 793.343 817.361 795.153 L 815.723 796.964 813.455 801.232 L 811.187 805.500 808.390 811 L 805.593 816.500 803.797 818.117 L 802 819.735 802 821.367 L 802 823 801 823 L 800 823 800 825 L 800 827 799 827 L 798 827 798 828.345 L 798 829.690 796 831.500 L 794 833.310 794 834.210 L 794 835.110 792.003 839.494 L 790.005 843.879 789 844.500 L 787.995 845.121 786.047 849.397 L 784.099 853.673 782.550 854.959 L 781 856.245 781 857.622 L 781 859 780 859 L 779 859 779 861 L 779 863 778 863 L 777 863 777 865.031 L 777 867.063 775.500 867.638 L 774 868.214 774 870.107 L 774 872 773 872 L 772 872 772 874 L 772 876 771 876 L 770 876 770 877.893 L 770 879.786 768.581 880.331 L 767.162 880.875 764.093 887.305 L 761.024 893.735 759.576 894.937 L 758.129 896.138 757.508 898.965 L 756.887 901.793 754.943 903.551 L 753 905.310 753 906.655 L 753 908 752 908 L 751 908 751 910 L 751 912 750 912 L 749 912 749 913.633 L 749 915.265 747.203 916.883 L 745.407 918.500 742.607 924 L 739.808 929.500 736.530 935.782 L 733.252 942.064 731.626 943.861 L 730 945.657 730 947.829 L 730 950 729 950 L 728 950 728 955.441 L 728 960.882 729 961.500 L 730 962.118 730 964.042 L 730 965.967 734.704 971.012 L 739.409 976.058 742.358 977.529 L 745.307 979 1023.404 978.909 L 1301.500 978.819 1306.494 976.118 L 1311.489 973.417 1311.856 971.458 L 1312.223 969.500 1313.544 968.738 L 1314.866 967.976 1316.433 964.834 L 1318 961.693 1318 954.846 L 1318 948 1317 948 L 1316 948 1316 946.083 L 1316 944.167 1315.213 943.833 L 1314.426 943.500 1311.617 938 L 1308.808 932.500 1305.422 926 L 1302.035 919.500 1300.518 918.390 L 1299 917.280 1299 915.640 L 1299 914 1298 914 L 1297 914 1297 912 L 1297 910 1296 910 L 1295 910 1295 908.241 L 1295 906.481 1293.090 905.288 L 1291.180 904.095 1290.526 901.117 L 1289.871 898.138 1288.424 896.937 L 1286.976 895.735 1284 889.500 L 1281.024 883.265 1279.512 882.010 L 1278 880.755 1278 879.378 L 1278 878 1277 878 L 1276 878 1276 876 L 1276 874 1275 874 L 1274 874 1274 872.122 L 1274 870.245 1272.500 869 L 1271 867.755 1271 866.378 L 1271 865 1270 865 L 1269 865 1269 863 L 1269 861 1268 861 L 1267 861 1267 859.107 L 1267 857.214 1265.548 856.657 L 1264.095 856.099 1262.050 851.610 L 1260.005 847.121 1259 846.500 L 1257.995 845.879 1255.997 841.494 L 1254 837.110 1254 836.210 L 1254 835.310 1252 833.500 L 1250 831.690 1250 830.345 L 1250 829 1249 829 L 1248 829 1248 827 L 1248 825 1247 825 L 1246 825 1246 823.221 L 1246 821.442 1244 820 L 1242 818.558 1242 816.779 L 1242 815 1241.236 815 L 1240.472 815 1238.677 811.250 L 1236.883 807.500 1234.580 803.232 L 1232.277 798.964 1230.784 797.232 L 1229.291 795.500 1227.901 792.250 L 1226.512 789 1225.756 789 L 1225 789 1225 787.221 L 1225 785.442 1223 784 L 1221 782.558 1221 780.779 L 1221 779 1220.236 779 L 1219.472 779 1217.677 775.250 L 1215.883 771.500 1213.580 767.232 L 1211.277 762.964 1209.810 761.232 L 1208.343 759.500 1205.562 753.677 L 1202.781 747.853 1201.391 747.320 L 1200 746.786 1200 745.294 L 1200 743.802 1198.301 740.151 L 1196.602 736.500 1194.801 734.883 L 1193 733.265 1193 731.633 L 1193 730 1192 730 L 1191 730 1191 728 L 1191 726 1190 726 L 1189 726 1189 724.829 L 1189 723.657 1187.361 721.847 L 1185.723 720.036 1183.455 715.768 L 1181.187 711.500 1178.390 706 L 1175.593 700.500 1173.797 698.883 L 1172 697.265 1172 695.633 L 1172 694 1171 694 L 1170 694 1170 692 L 1170 690 1169 690 L 1168 690 1168 688.622 L 1168 687.245 1166.450 685.959 L 1164.901 684.673 1162.950 680.391 L 1161 676.110 1161 675.177 L 1161 674.245 1159.450 672.959 L 1157.901 671.673 1156 667.500 L 1154.099 663.327 1152.550 662.041 L 1151 660.755 1151 659.378 L 1151 658 1150 658 L 1149 658 1149 656 L 1149 654 1148 654 L 1147 654 1147 652.107 L 1147 650.214 1145.500 649.638 L 1144 649.063 1144 647.031 L 1144 645 1143 645 L 1142 645 1142 643 L 1142 641 1141 641 L 1140 641 1140 639.622 L 1140 638.245 1138.488 636.990 L 1136.976 635.735 1134 629.500 L 1131.024 623.265 1129.512 622.010 L 1128 620.755 1128 619.378 L 1128 618 1126.893 618 L 1125.786 618 1126.326 616.594 L 1126.865 615.188 1124.933 613.439 L 1123 611.690 1123 610.345 L 1123 609 1122 609 L 1121 609 1121 607 L 1121 605 1120 605 L 1119 605 1119 603.367 L 1119 601.735 1117.233 600.117 L 1115.466 598.500 1113.038 593.500 L 1110.609 588.500 1108.865 586.500 L 1107.121 584.500 1107.199 584 L 1107.278 583.500 1105.188 578.914 L 1103.099 574.327 1101.550 573.041 L 1100 571.755 1100 570.378 L 1100 569 1099 569 L 1098 569 1098 567.221 L 1098 565.442 1096 564 L 1094 562.558 1094 560.863 L 1094 559.167 1093.250 558.833 L 1092.500 558.500 1090.314 554.500 L 1088.128 550.500 1085.076 544.383 L 1082.024 538.265 1080.512 537.010 L 1079 535.755 1079 534.378 L 1079 533 1078 533 L 1077 533 1077 531 L 1077 529 1076 529 L 1075 529 1075 527.221 L 1075 525.442 1073.037 524.027 L 1071.074 522.612 1070.403 519.557 L 1069.732 516.502 1067.866 514.884 L 1066 513.265 1066 511.633 L 1066 510 1065.187 510 L 1064.373 510 1062.981 506.452 L 1061.589 502.904 1060.282 501.819 L 1058.976 500.735 1055.924 494.617 L 1052.872 488.500 1050.690 484.500 L 1048.507 480.500 1046.753 478.883 L 1045 477.265 1045 475.633 L 1045 474 1044 474 L 1043 474 1043 472.435 L 1043 470.871 1039.830 468.204 L 1036.660 465.536 1034.216 464.268 L 1031.771 463 1029.886 463 L 1028 463 1028 462 L 1028 461 1023 461 L 1018 461 1018 462 M 224 1184 L 224 1185 222.474 1185 L 220.947 1185 216.474 1189.474 L 212 1193.947 212 1200.820 L 212 1207.693 213.563 1210.826 L 215.127 1213.960 216.031 1214.519 L 216.935 1215.078 220.048 1221.601 L 223.162 1228.125 224.483 1228.632 L 225.803 1229.139 226.447 1232.569 L 227.091 1236 228.045 1236 L 229 1236 229 1237.779 L 229 1239.558 231 1241 L 233 1242.442 233 1244.221 L 233 1246 233.756 1246 L 234.512 1246 235.901 1249.250 L 237.291 1252.500 238.784 1254.232 L 240.277 1255.964 242.545 1260.232 L 244.813 1264.500 247.610 1270 L 250.407 1275.500 252.203 1277.117 L 254 1278.735 254 1280.367 L 254 1282 255 1282 L 256 1282 256 1284 L 256 1286 257 1286 L 258 1286 258 1287.378 L 258 1288.755 259.604 1290.086 L 261.208 1291.418 262.270 1293.959 L 263.332 1296.500 263.503 1297 L 263.673 1297.500 264.485 1299.500 L 265.298 1301.500 267.007 1303.500 L 268.715 1305.500 270.102 1308.750 L 271.488 1312 272.244 1312 L 273 1312 273 1313.779 L 273 1315.558 275 1317 L 277 1318.442 277 1320.221 L 277 1322 277.813 1322 L 278.627 1322 280.019 1325.548 L 281.411 1329.096 282.706 1330.171 L 284 1331.245 284 1333.122 L 284 1335 285 1335 L 286 1335 286 1336.378 L 286 1337.755 287.512 1339.010 L 289.024 1340.265 292 1346.500 L 294.976 1352.735 296.488 1353.990 L 298 1355.245 298 1356.622 L 298 1358 299.044 1358 L 300.088 1358 299.886 1359.250 L 299.685 1360.500 300.523 1362.500 L 301.361 1364.500 303.181 1366.117 L 305 1367.735 305 1369.367 L 305 1371 306 1371 L 307 1371 307 1373 L 307 1375 308 1375 L 309 1375 309 1376.171 L 309 1377.343 310.626 1379.139 L 312.252 1380.936 315.530 1387.218 L 318.808 1393.500 321.607 1399 L 324.407 1404.500 326.203 1406.117 L 328 1407.735 328 1409.367 L 328 1411 329 1411 L 330 1411 330 1412.893 L 330 1414.786 331.452 1415.343 L 332.905 1415.901 334.952 1420.395 L 337 1424.890 337 1425.823 L 337 1426.755 338.512 1428.010 L 340.024 1429.265 343.093 1435.695 L 346.162 1442.125 347.581 1442.669 L 349 1443.214 349 1445.107 L 349 1447 350 1447 L 351 1447 351 1449 L 351 1451 352 1451 L 353 1451 353 1452.378 L 353 1453.755 354.500 1455 L 356 1456.245 356 1458.122 L 356 1460 357 1460 L 358 1460 358 1462 L 358 1464 359 1464 L 360 1464 360 1465.378 L 360 1466.755 361.512 1468.010 L 363.024 1469.265 366 1475.500 L 368.976 1481.735 370.488 1482.990 L 372 1484.245 372 1485.221 L 372 1486.198 373.699 1489.849 L 375.398 1493.500 377.199 1495.117 L 379 1496.735 379 1498.367 L 379 1500 380 1500 L 381 1500 381 1501.893 L 381 1503.786 382.419 1504.331 L 383.838 1504.875 387.005 1511.188 L 390.171 1517.500 393.568 1524 L 396.965 1530.500 398.482 1531.610 L 400 1532.720 400 1534.360 L 400 1536 401 1536 L 402 1536 402 1538 L 402 1540 403 1540 L 404 1540 404 1541.893 L 404 1543.786 405.452 1544.343 L 406.905 1544.901 408.952 1549.395 L 411 1553.890 411 1554.823 L 411 1555.755 412.512 1557.010 L 414.024 1558.265 417.093 1564.695 L 420.162 1571.125 421.581 1571.669 L 423 1572.214 423 1574.107 L 423 1576 424 1576 L 425 1576 425 1577.670 L 425 1579.341 431.487 1585.670 L 437.974 1592 1022.086 1592 L 1606.198 1592 1609.599 1590.386 L 1613 1588.772 1613 1587.886 L 1613 1587 1613.987 1587 L 1614.974 1587 1619.987 1582.013 L 1625 1577.026 1625 1575.513 L 1625 1574 1626 1574 L 1627 1574 1627 1572.360 L 1627 1570.720 1628.518 1569.610 L 1630.035 1568.500 1633.432 1562 L 1636.829 1555.500 1639.995 1549.188 L 1643.162 1542.875 1644.581 1542.331 L 1646 1541.786 1646 1539.893 L 1646 1538 1647 1538 L 1648 1538 1648 1536 L 1648 1534 1649 1534 L 1650 1534 1650 1532.107 L 1650 1530.214 1651.452 1529.657 L 1652.905 1529.099 1654.952 1524.605 L 1657 1520.110 1657 1519.177 L 1657 1518.245 1658.512 1516.990 L 1660.024 1515.735 1663.093 1509.305 L 1666.162 1502.875 1667.581 1502.331 L 1669 1501.786 1669 1499.893 L 1669 1498 1670 1498 L 1671 1498 1671 1496.122 L 1671 1494.245 1672.500 1493 L 1674 1491.755 1674 1490.378 L 1674 1489 1675 1489 L 1676 1489 1676 1487 L 1676 1485 1677 1485 L 1678 1485 1678 1483.107 L 1678 1481.214 1679.419 1480.669 L 1680.838 1480.125 1683.907 1473.695 L 1686.976 1467.265 1688.488 1466.010 L 1690 1464.755 1690 1463.378 L 1690 1462 1690.889 1462 L 1691.777 1462 1692.438 1458.478 L 1693.099 1454.955 1695.050 1453.737 L 1697 1452.519 1697 1450.759 L 1697 1449 1698 1449 L 1699 1449 1699 1447 L 1699 1445 1700 1445 L 1701 1445 1701 1443.107 L 1701 1441.214 1702.419 1440.669 L 1703.838 1440.125 1707.002 1433.812 L 1710.166 1427.500 1712.445 1423.232 L 1714.723 1418.964 1716.361 1417.153 L 1718 1415.343 1718 1414.171 L 1718 1413 1719 1413 L 1720 1413 1720 1411 L 1720 1409 1721 1409 L 1722 1409 1722 1407.367 L 1722 1405.735 1723.750 1404.117 L 1725.500 1402.500 1727.616 1398.407 L 1729.732 1394.314 1727.879 1393.157 L 1726.027 1392 1721.573 1392 L 1717.118 1392 1716.500 1391 L 1715.882 1390 1712.500 1390 L 1709.118 1390 1708.500 1389 L 1707.882 1388 1705.441 1388 L 1703 1388 1703 1387 L 1703 1386 1699 1386 L 1695 1386 1695 1385 L 1695 1384 1693.030 1384 L 1691.061 1384 1687.500 1382 L 1683.939 1380 1682.319 1380 L 1680.699 1380 1675.100 1377.287 L 1669.500 1374.574 1669.167 1373.787 L 1668.833 1373 1666.917 1373 L 1665 1373 1665 1372 L 1665 1371 1663.221 1371 L 1661.442 1371 1660 1369 L 1658.558 1367 1657.402 1367 L 1656.245 1367 1654.914 1365.396 L 1653.582 1363.792 1651.541 1362.853 L 1649.500 1361.914 1647.257 1360.618 L 1645.014 1359.322 1643.178 1357.661 L 1641.343 1356 1640.410 1356 L 1639.477 1356 1623.738 1340.239 L 1608 1324.477 1608 1323.543 L 1608 1322.609 1605.374 1319.868 L 1602.748 1317.128 1601.417 1314.814 L 1600.086 1312.500 1599.147 1310.459 L 1598.208 1308.418 1596.604 1307.086 L 1595 1305.755 1595 1304.378 L 1595 1303 1594 1303 L 1593 1303 1593 1301 L 1593 1299 1592 1299 L 1591 1299 1591 1297 L 1591 1295 1590 1295 L 1589 1295 1589 1293.083 L 1589 1291.167 1588.213 1290.833 L 1587.426 1290.500 1584.713 1284.900 L 1582 1279.301 1582 1277.209 L 1582 1275.118 1581 1274.500 L 1580 1273.882 1580 1271.500 L 1580 1269.118 1579 1268.500 L 1578 1267.882 1578 1265.441 L 1578 1263 1577 1263 L 1576 1263 1576 1260 L 1576 1257 1575 1257 L 1574 1257 1574 1253.559 L 1574 1250.118 1573 1249.500 L 1572 1248.882 1572 1244.441 L 1572 1240 1571 1240 L 1570 1240 1570 1230.500 L 1570 1221 1569 1221 L 1568 1221 1568 1209 L 1568 1197 1569 1197 L 1570 1197 1570 1190 L 1570 1183 897 1183 L 224 1183 224 1184" stroke="none" fill="#04141c" fill-rule="evenodd"/><path d="M 1018.500 462 L 1017.882 463 1015.842 463 L 1013.802 463 1011 466 L 1008.198 469 1006.678 469 L 1005.159 469 1004.445 472.250 L 1003.731 475.500 1001.866 476.807 L 1000 478.113 1000 480.057 L 1000 482 999 482 L 998 482 998 483.378 L 998 484.755 996.523 485.981 L 995.046 487.207 992.354 492.853 L 989.663 498.500 987.892 500.500 L 986.121 502.500 985.989 503.500 L 985.857 504.500 984.229 508 L 982.602 511.500 980.801 513.117 L 979 514.735 979 516.367 L 979 518 978 518 L 977 518 977 520 L 977 522 976 522 L 975 522 975 523.171 L 975 524.343 973.361 526.153 L 971.723 527.964 969.455 532.232 L 967.187 536.500 964.390 542 L 961.593 547.500 959.797 549.117 L 958 550.735 958 552.367 L 958 554 957 554 L 956 554 956 556 L 956 558 955 558 L 954 558 954 559.759 L 954 561.519 952 562.768 L 950 564.017 950 565.063 L 950 566.110 948.003 570.494 L 946.005 574.879 945 575.500 L 943.995 576.121 942.047 580.397 L 940.099 584.673 938.550 585.959 L 937 587.245 937 588.622 L 937 590 936 590 L 935 590 935 592 L 935 594 934 594 L 933 594 933 596 L 933 598 932.019 598 L 931.038 598 930.411 600.500 L 929.783 603 928.892 603 L 928 603 928 605 L 928 607 927 607 L 926 607 926 608.893 L 926 610.786 924.548 611.343 L 923.095 611.901 921.050 616.390 L 919.005 620.879 918 621.500 L 916.995 622.121 914.997 626.506 L 913 630.890 913 631.790 L 913 632.690 911 634.500 L 909 636.310 909 637.655 L 909 639 908 639 L 907 639 907 641 L 907 643 906 643 L 905 643 905 644.779 L 905 646.558 903 648 L 901 649.442 901 651.221 L 901 653 900.236 653 L 899.472 653 897.677 656.750 L 895.883 660.500 893.580 664.768 L 891.277 669.036 889.784 670.768 L 888.291 672.500 886.901 675.750 L 885.512 679 884.756 679 L 884 679 884 680.779 L 884 682.558 882 684 L 880 685.442 880 687.221 L 880 689 879.117 689 L 878.233 689 877.508 691.250 L 876.784 693.500 876.934 694.376 L 877.084 695.253 875.042 696.683 L 873 698.113 873 700.057 L 873 702 872.244 702 L 871.488 702 870.102 705.250 L 868.715 708.500 867.062 710.500 L 865.409 712.500 863.961 715.500 L 862.514 718.500 860.757 720.117 L 859 721.735 859 722.966 L 859 724.198 857.301 727.849 L 855.602 731.500 853.801 733.117 L 852 734.735 852 736.367 L 852 738 851 738 L 850 738 850 740 L 850 742 849 742 L 848 742 848 743.378 L 848 744.755 846.450 746.041 L 844.901 747.327 843.039 751.414 L 841.178 755.500 841.028 756.500 L 840.879 757.500 839.144 759.500 L 837.409 761.500 835.961 764.500 L 834.514 767.500 832.757 769.117 L 831 770.735 831 772.367 L 831 774 830 774 L 829 774 829 776 L 829 778 828 778 L 827 778 827 779.378 L 827 780.755 825.396 782.086 L 823.792 783.418 822.730 785.959 L 821.668 788.500 821.500 789 L 821.332 789.500 820.228 792.153 L 819.123 794.806 818.059 795.464 L 816.995 796.121 814.950 800.610 L 812.905 805.099 811.452 805.657 L 810 806.214 810 808.107 L 810 810 809 810 L 808 810 808 812 L 808 814 807 814 L 806 814 806 815.893 L 806 817.786 804.500 818.362 L 803 818.937 803 820.969 L 803 823 802 823 L 801 823 801 825 L 801 827 800 827 L 799 827 799 828.893 L 799 830.786 797.581 831.331 L 796.162 831.875 793 838.500 L 789.838 845.125 788.419 845.669 L 787 846.214 787 848.107 L 787 850 785.893 850 L 784.786 850 785.326 851.406 L 785.865 852.812 783.933 854.561 L 782 856.310 782 857.655 L 782 859 781 859 L 780 859 780 861 L 780 863 779 863 L 778 863 778 864.633 L 778 866.265 776.203 867.883 L 774.407 869.500 771.607 875 L 768.808 880.500 765.422 887 L 762.035 893.500 760.518 894.610 L 759 895.720 759 897.360 L 759 899 758 899 L 757 899 757 900.779 L 757 902.558 755 904 L 753 905.442 753 907.137 L 753 908.833 752.250 909.167 L 751.500 909.500 749.314 913.500 L 747.128 917.500 744.076 923.617 L 741.024 929.735 739.512 930.990 L 738 932.245 738 933.622 L 738 935 737 935 L 736 935 736 937 L 736 939 735 939 L 734 939 734 940.779 L 734 942.558 732.031 943.978 L 730.062 945.397 730.639 947.699 L 731.217 950 730.108 950 L 729 950 729 955.441 L 729 960.882 730.041 961.525 L 731.081 962.168 730.542 963.869 L 730.002 965.570 735.251 970.539 L 740.500 975.509 742.736 976.754 L 744.973 978 884.736 978 L 1024.500 978 1024.244 720.500 L 1023.989 463 1025.744 462.930 L 1027.500 462.859 1025.500 462 L 1023.500 461.141 1021.309 461.070 L 1019.118 461 1018.500 462 M 1031.333 464.667 L 1032 465.333 1032.667 464.667 L 1033.333 464 1032 464 L 1030.667 464 1031.333 464.667 M 1035 466 L 1035 467.333 1035.667 466.667 L 1036.333 466 1035.667 465.333 L 1035 464.667 1035 466 M 1037 467.500 L 1037 468 1037.500 468 L 1038 468 1038 467.500 L 1038 467 1037.500 467 L 1037 467 1037 467.500 M 1039 469.500 L 1039 470 1039.500 470 L 1040 470 1040 469.500 L 1040 469 1039.500 469 L 1039 469 1039 469.500 M 1041 472 L 1041 473.333 1041.667 472.667 L 1042.333 472 1041.667 471.333 L 1041 470.667 1041 472 M 1043 476 L 1043 477.333 1043.667 476.667 L 1044.333 476 1043.667 475.333 L 1043 474.667 1043 476 M 1045 479.500 L 1045 480 1045.500 480 L 1046 480 1046 479.500 L 1046 479 1045.500 479 L 1045 479 1045 479.500 M 1047 482 L 1047 483.333 1047.667 482.667 L 1048.333 482 1047.667 481.333 L 1047 480.667 1047 482 M 1048.500 485 L 1047.882 486 1048.941 486 L 1050 486 1050 485 L 1050 484 1049.559 484 L 1049.118 484 1048.500 485 M 1050.333 488.667 L 1051 489.333 1051.667 488.667 L 1052.333 488 1051 488 L 1049.667 488 1050.333 488.667 M 1052 491.059 L 1052 492.118 1053 491.500 L 1054 490.882 1054 490.441 L 1054 490 1053 490 L 1052 490 1052 491.059 M 1054 495 L 1054 496.333 1054.667 495.667 L 1055.333 495 1054.667 494.333 L 1054 493.667 1054 495 M 1056 498.500 L 1056 499 1056.500 499 L 1057 499 1057 498.500 L 1057 498 1056.500 498 L 1056 498 1056 498.500 M 1060 504 L 1060 505.333 1060.667 504.667 L 1061.333 504 1060.667 503.333 L 1060 502.667 1060 504 M 1062 508 L 1062 509.333 1062.667 508.667 L 1063.333 508 1062.667 507.333 L 1062 506.667 1062 508 M 1064 512 L 1064 513.333 1064.667 512.667 L 1065.333 512 1064.667 511.333 L 1064 510.667 1064 512 M 1066 515.500 L 1066 516 1066.500 516 L 1067 516 1067 515.500 L 1067 515 1066.500 515 L 1066 515 1066 515.500 M 1067.333 517.667 L 1068 518.333 1068.667 517.667 L 1069.333 517 1068 517 L 1066.667 517 1067.333 517.667 M 1069.500 521 L 1068.882 522 1069.941 522 L 1071 522 1071 521 L 1071 520 1070.559 520 L 1070.118 520 1069.500 521 M 1071 524.500 L 1071 525 1071.500 525 L 1072 525 1072 524.500 L 1072 524 1071.500 524 L 1071 524 1071 524.500 M 1073 527 L 1073 528.333 1073.667 527.667 L 1074.333 527 1073.667 526.333 L 1073 525.667 1073 527 M 1075 531 L 1075 532.333 1075.667 531.667 L 1076.333 531 1075.667 530.333 L 1075 529.667 1075 531 M 1077 535 L 1077 536.333 1077.667 535.667 L 1078.333 535 1077.667 534.333 L 1077 533.667 1077 535 M 1079 538 L 1079 539.333 1079.667 538.667 L 1080.333 538 1079.667 537.333 L 1079 536.667 1079 538 M 1081.079 540.583 L 1081.158 542.500 1081.683 541.188 L 1082.208 539.875 1081.604 539.271 L 1081 538.667 1081.079 540.583 M 1082.500 544 L 1083.118 545 1083.559 545 L 1084 545 1084 544 L 1084 543 1082.941 543 L 1081.882 543 1082.500 544 M 1084.500 548 L 1085.118 549 1085.559 549 L 1086 549 1086 548 L 1086 547 1084.941 547 L 1083.882 547 1084.500 548 M 1087.638 552.500 L 1088.214 554 1089.229 554 L 1090.245 554 1089 552.500 L 1087.755 551 1087.409 551 L 1087.063 551 1087.638 552.500 M 1090 557 L 1090 558.333 1090.667 557.667 L 1091.333 557 1090.667 556.333 L 1090 555.667 1090 557 M 1092 561 L 1092 562.333 1092.667 561.667 L 1093.333 561 1092.667 560.333 L 1092 559.667 1092 561 M 1094 564.500 L 1094 565 1094.500 565 L 1095 565 1095 564.500 L 1095 564 1094.500 564 L 1094 564 1094 564.500 M 1096 567 L 1096 568.333 1096.667 567.667 L 1097.333 567 1096.667 566.333 L 1096 565.667 1096 567 M 1098 571 L 1098 572.333 1098.667 571.667 L 1099.333 571 1098.667 570.333 L 1098 569.667 1098 571 M 1100 574.409 L 1100 574.755 1101.500 576 L 1103 577.245 1103 576.229 L 1103 575.214 1101.500 574.638 L 1100 574.063 1100 574.409 M 1103.500 580 L 1104.118 581 1104.559 581 L 1105 581 1105 580 L 1105 579 1103.941 579 L 1102.882 579 1103.500 580 M 1105.500 584 L 1106.118 585 1106.559 585 L 1107 585 1107 584 L 1107 583 1105.941 583 L 1104.882 583 1105.500 584 M 1109 589.500 L 1109 590 1109.500 590 L 1110 590 1110 589.500 L 1110 589 1109.500 589 L 1109 589 1109 589.500 M 1111 593 L 1111 594.333 1111.667 593.667 L 1112.333 593 1111.667 592.333 L 1111 591.667 1111 593 M 1113 597 L 1113 598.333 1113.667 597.667 L 1114.333 597 1113.667 596.333 L 1113 595.667 1113 597 M 1115 600.500 L 1115 601 1115.500 601 L 1116 601 1116 600.500 L 1116 600 1115.500 600 L 1115 600 1115 600.500 M 1117 603 L 1117 604.333 1117.667 603.667 L 1118.333 603 1117.667 602.333 L 1117 601.667 1117 603 M 1119 607 L 1119 608.333 1119.667 607.667 L 1120.333 607 1119.667 606.333 L 1119 605.667 1119 607 M 1121 610.500 L 1121 611 1121.500 611 L 1122 611 1122 610.500 L 1122 610 1121.500 610 L 1121 610 1121 610.500 M 1123 613.500 L 1123 614 1123.500 614 L 1124 614 1124 613.500 L 1124 613 1123.500 613 L 1123 613 1123 613.500 M 1124 616 L 1124 617 1125 617 L 1126 617 1126 616 L 1126 615 1125 615 L 1124 615 1124 616 M 1126 620.059 L 1126 621.118 1127 620.500 L 1128 619.882 1128 619.441 L 1128 619 1127 619 L 1126 619 1126 620.059 M 1128 623.500 L 1128 624 1128.500 624 L 1129 624 1129 623.500 L 1129 623 1128.500 623 L 1128 623 1128 623.500 M 1130 626 L 1130 627.333 1130.667 626.667 L 1131.333 626 1130.667 625.333 L 1130 624.667 1130 626 M 1132 629 L 1132 630.333 1132.667 629.667 L 1133.333 629 1132.667 628.333 L 1132 627.667 1132 629 M 1134 633 L 1134 634.333 1134.667 633.667 L 1135.333 633 1134.667 632.333 L 1134 631.667 1134 633 M 1136 636.500 L 1136 637 1136.500 637 L 1137 637 1137 636.500 L 1137 636 1136.500 636 L 1136 636 1136 636.500 M 1138 639 L 1138 640.333 1138.667 639.667 L 1139.333 639 1138.667 638.333 L 1138 637.667 1138 639 M 1139.500 643 L 1140.118 644 1140.559 644 L 1141 644 1141 643 L 1141 642 1139.941 642 L 1138.882 642 1139.500 643 M 1141.333 646.667 L 1142 647.333 1142.667 646.667 L 1143.333 646 1142 646 L 1140.667 646 1141.333 646.667 M 1145 652 L 1145 653.333 1145.667 652.667 L 1146.333 652 1145.667 651.333 L 1145 650.667 1145 652 M 1147 656 L 1147 657.333 1147.667 656.667 L 1148.333 656 1147.667 655.333 L 1147 654.667 1147 656 M 1149 660 L 1149 661.333 1149.667 660.667 L 1150.333 660 1149.667 659.333 L 1149 658.667 1149 660 M 1151 663.500 L 1151 664 1151.500 664 L 1152 664 1152 663.500 L 1152 663 1151.500 663 L 1151 663 1151 663.500 M 1153.079 665.583 L 1153.158 667.500 1153.683 666.188 L 1154.208 664.875 1153.604 664.271 L 1153 663.667 1153.079 665.583 M 1155 669 L 1155 670.333 1155.667 669.667 L 1156.333 669 1155.667 668.333 L 1155 667.667 1155 669 M 1157 672.500 L 1157 673 1157.500 673 L 1158 673 1158 672.500 L 1158 672 1157.500 672 L 1157 672 1157 672.500 M 1158.500 675 L 1159.118 676 1159.559 676 L 1160 676 1160 675 L 1160 674 1158.941 674 L 1157.882 674 1158.500 675 M 1160.333 678.667 L 1161 679.333 1161.667 678.667 L 1162.333 678 1161 678 L 1159.667 678 1160.333 678.667 M 1162.333 682.667 L 1163 683.333 1163.667 682.667 L 1164.333 682 1163 682 L 1161.667 682 1162.333 682.667 M 1166 688 L 1166 689.333 1166.667 688.667 L 1167.333 688 1166.667 687.333 L 1166 686.667 1166 688 M 1168 692 L 1168 693.333 1168.667 692.667 L 1169.333 692 1168.667 691.333 L 1168 690.667 1168 692 M 1170 696 L 1170 697.333 1170.667 696.667 L 1171.333 696 1170.667 695.333 L 1170 694.667 1170 696 M 1172 699.500 L 1172 700 1172.500 700 L 1173 700 1173 699.500 L 1173 699 1172.500 699 L 1172 699 1172 699.500 M 1174 702 L 1174 703.333 1174.667 702.667 L 1175.333 702 1174.667 701.333 L 1174 700.667 1174 702 M 1175.500 705 L 1176.118 706 1176.559 706 L 1177 706 1177 705 L 1177 704 1175.941 704 L 1174.882 704 1175.500 705 M 1177.500 709 L 1178.118 710 1178.559 710 L 1179 710 1179 709 L 1179 708 1177.941 708 L 1176.882 708 1177.500 709 M 1179.333 712.667 L 1180 713.333 1180.667 712.667 L 1181.333 712 1180 712 L 1178.667 712 1179.333 712.667 M 1181.333 714.667 L 1182 715.333 1182.667 714.667 L 1183.333 714 1182 714 L 1180.667 714 1181.333 714.667 M 1183 718.500 L 1183 719 1183.500 719 L 1184 719 1184 718.500 L 1184 718 1183.500 718 L 1183 718 1183 718.500 M 1187 724 L 1187 725.333 1187.667 724.667 L 1188.333 724 1187.667 723.333 L 1187 722.667 1187 724 M 1189 728 L 1189 729.333 1189.667 728.667 L 1190.333 728 1189.667 727.333 L 1189 726.667 1189 728 M 1191 732 L 1191 733.333 1191.667 732.667 L 1192.333 732 1191.667 731.333 L 1191 730.667 1191 732 M 1193 735.500 L 1193 736 1193.500 736 L 1194 736 1194 735.500 L 1194 735 1193.500 735 L 1193 735 1193 735.500 M 1194.333 737.667 L 1195 738.333 1195.667 737.667 L 1196.333 737 1195 737 L 1193.667 737 1194.333 737.667 M 1196.500 741 L 1195.882 742 1196.941 742 L 1198 742 1198 741 L 1198 740 1197.559 740 L 1197.118 740 1196.500 741 M 1198 745.059 L 1198 746.118 1199 745.500 L 1200 744.882 1200 744.441 L 1200 744 1199 744 L 1198 744 1198 745.059 M 1200 748.500 L 1200 749 1200.500 749 L 1201 749 1201 748.500 L 1201 748 1200.500 748 L 1200 748 1200 748.500 M 1202 751 L 1202 752.333 1202.667 751.667 L 1203.333 751 1202.667 750.333 L 1202 749.667 1202 751 M 1204 755 L 1204 756.333 1204.667 755.667 L 1205.333 755 1204.667 754.333 L 1204 753.667 1204 755 M 1206 758 L 1206 759.333 1206.667 758.667 L 1207.333 758 1206.667 757.333 L 1206 756.667 1206 758 M 1208 761.500 L 1208 762 1208.500 762 L 1209 762 1209 761.500 L 1209 761 1208.500 761 L 1208 761 1208 761.500 M 1210 764 L 1210 765.333 1210.667 764.667 L 1211.333 764 1210.667 763.333 L 1210 762.667 1210 764 M 1211.500 768 L 1212.118 769 1212.559 769 L 1213 769 1213 768 L 1213 767 1211.941 767 L 1210.882 767 1211.500 768 M 1214 771.500 L 1214 772 1214.500 772 L 1215 772 1215 771.500 L 1215 771 1214.500 771 L 1214 771 1214 771.500 M 1215.333 773.667 L 1216 774.333 1216.667 773.667 L 1217.333 773 1216 773 L 1214.667 773 1215.333 773.667 M 1217 777 L 1217 778.333 1217.667 777.667 L 1218.333 777 1217.667 776.333 L 1217 775.667 1217 777 M 1219 781 L 1219 782.333 1219.667 781.667 L 1220.333 781 1219.667 780.333 L 1219 779.667 1219 781 M 1221 784.500 L 1221 785 1221.500 785 L 1222 785 1222 784.500 L 1222 784 1221.500 784 L 1221 784 1221 784.500 M 1223 787 L 1223 788.333 1223.667 787.667 L 1224.333 787 1223.667 786.333 L 1223 785.667 1223 787 M 1225 791 L 1225 792.333 1225.667 791.667 L 1226.333 791 1225.667 790.333 L 1225 789.667 1225 791 M 1227.079 794.583 L 1227.158 796.500 1227.683 795.188 L 1228.208 793.875 1227.604 793.271 L 1227 792.667 1227.079 794.583 M 1229 797.500 L 1229 798 1229.500 798 L 1230 798 1230 797.500 L 1230 797 1229.500 797 L 1229 797 1229 797.500 M 1230.500 800 L 1231.118 801 1231.559 801 L 1232 801 1232 800 L 1232 799 1230.941 799 L 1229.882 799 1230.500 800 M 1232.500 804 L 1233.118 805 1233.559 805 L 1234 805 1234 804 L 1234 803 1232.941 803 L 1231.882 803 1232.500 804 M 1236 809.500 L 1236 810 1236.500 810 L 1237 810 1237 809.500 L 1237 809 1236.500 809 L 1236 809 1236 809.500 M 1238 813 L 1238 814.333 1238.667 813.667 L 1239.333 813 1238.667 812.333 L 1238 811.667 1238 813 M 1240 817 L 1240 818.333 1240.667 817.667 L 1241.333 817 1240.667 816.333 L 1240 815.667 1240 817 M 1242 820.500 L 1242 821 1242.500 821 L 1243 821 1243 820.500 L 1243 820 1242.500 820 L 1242 820 1242 820.500 M 1244 823 L 1244 824.333 1244.667 823.667 L 1245.333 823 1244.667 822.333 L 1244 821.667 1244 823 M 1246 827 L 1246 828.333 1246.667 827.667 L 1247.333 827 1246.667 826.333 L 1246 825.667 1246 827 M 1248.079 830.583 L 1248.158 832.500 1248.683 831.188 L 1249.208 829.875 1248.604 829.271 L 1248 828.667 1248.079 830.583 M 1250 833.500 L 1250 834 1250.500 834 L 1251 834 1251 833.500 L 1251 833 1250.500 833 L 1250 833 1250 833.500 M 1251 836 L 1251 837 1252 837 L 1253 837 1253 836 L 1253 835 1252 835 L 1251 835 1251 836 M 1253.333 839.667 L 1254 840.333 1254.667 839.667 L 1255.333 839 1254 839 L 1252.667 839 1253.333 839.667 M 1255 843.500 L 1255 844 1255.500 844 L 1256 844 1256 843.500 L 1256 843 1255.500 843 L 1255 843 1255 843.500 M 1257 847.500 L 1257 848 1257.500 848 L 1258 848 1258 847.500 L 1258 847 1257.500 847 L 1257 847 1257 847.500 M 1259 849 L 1259 850.333 1259.667 849.667 L 1260.333 849 1259.667 848.333 L 1259 847.667 1259 849 M 1261 853 L 1261 854.333 1261.667 853.667 L 1262.333 853 1261.667 852.333 L 1261 851.667 1261 853 M 1263 856.500 L 1263 857 1263.500 857 L 1264 857 1264 856.500 L 1264 856 1263.500 856 L 1263 856 1263 856.500 M 1265 859 L 1265 860.333 1265.667 859.667 L 1266.333 859 1265.667 858.333 L 1265 857.667 1265 859 M 1266.500 863 L 1267.118 864 1267.559 864 L 1268 864 1268 863 L 1268 862 1266.941 862 L 1265.882 862 1266.500 863 M 1268.333 866.667 L 1269 867.333 1269.667 866.667 L 1270.333 866 1269 866 L 1267.667 866 1268.333 866.667 M 1272 872.059 L 1272 873.118 1273 872.500 L 1274 871.882 1274 871.441 L 1274 871 1273 871 L 1272 871 1272 872.059 M 1274 876 L 1274 877.333 1274.667 876.667 L 1275.333 876 1274.667 875.333 L 1274 874.667 1274 876 M 1276 880 L 1276 881.333 1276.667 880.667 L 1277.333 880 1276.667 879.333 L 1276 878.667 1276 880 M 1278 883.500 L 1278 884 1278.500 884 L 1279 884 1279 883.500 L 1279 883 1278.500 883 L 1278 883 1278 883.500 M 1280.079 885.583 L 1280.158 887.500 1280.683 886.188 L 1281.208 884.875 1280.604 884.271 L 1280 883.667 1280.079 885.583 M 1282 889 L 1282 890.333 1282.667 889.667 L 1283.333 889 1282.667 888.333 L 1282 887.667 1282 889 M 1283.500 893 L 1284.118 894 1284.559 894 L 1285 894 1285 893 L 1285 892 1283.941 892 L 1282.882 892 1283.500 893 M 1286 896.500 L 1286 897 1286.500 897 L 1287 897 1287 896.500 L 1287 896 1286.500 896 L 1286 896 1286 896.500 M 1287.333 898.667 L 1288 899.333 1288.667 898.667 L 1289.333 898 1288 898 L 1286.667 898 1287.333 898.667 M 1289.333 902.667 L 1290 903.333 1290.667 902.667 L 1291.333 902 1290 902 L 1288.667 902 1289.333 902.667 M 1293 908 L 1293 909.333 1293.667 908.667 L 1294.333 908 1293.667 907.333 L 1293 906.667 1293 908 M 1295 912 L 1295 913.333 1295.667 912.667 L 1296.333 912 1295.667 911.333 L 1295 910.667 1295 912 M 1297 916 L 1297 917.333 1297.667 916.667 L 1298.333 916 1297.667 915.333 L 1297 914.667 1297 916 M 1299 919.500 L 1299 920 1299.500 920 L 1300 920 1300 919.500 L 1300 919 1299.500 919 L 1299 919 1299 919.500 M 1301.079 921.583 L 1301.158 923.500 1301.683 922.188 L 1302.208 920.875 1301.604 920.271 L 1301 919.667 1301.079 921.583 M 1302.500 925 L 1303.118 926 1303.559 926 L 1304 926 1304 925 L 1304 924 1302.941 924 L 1301.882 924 1302.500 925 M 1304.500 929 L 1305.118 930 1305.559 930 L 1306 930 1306 929 L 1306 928 1304.941 928 L 1303.882 928 1304.500 929 M 1307 932.500 L 1307 933 1307.500 933 L 1308 933 1308 932.500 L 1308 932 1307.500 932 L 1307 932 1307 932.500 M 1308.333 934.667 L 1309 935.333 1309.667 934.667 L 1310.333 934 1309 934 L 1307.667 934 1308.333 934.667 M 1310 938.500 L 1310 939 1310.500 939 L 1311 939 1311 938.500 L 1311 938 1310.500 938 L 1310 938 1310 938.500 M 1312 942 L 1312 943.333 1312.667 942.667 L 1313.333 942 1312.667 941.333 L 1312 940.667 1312 942 M 1314 946 L 1314 947.333 1314.667 946.667 L 1315.333 946 1314.667 945.333 L 1314 944.667 1314 946 M 1316.336 956 L 1316.336 963.500 1316.728 959.750 L 1317.121 956 1316.728 952.250 L 1316.336 948.500 1316.336 956 M 1314 965 L 1314 966.333 1314.667 965.667 L 1315.333 965 1314.667 964.333 L 1314 963.667 1314 965 M 1312 967.500 L 1312 968 1312.500 968 L 1313 968 1313 967.500 L 1313 967 1312.500 967 L 1312 967 1312 967.500 M 1308.750 972.167 L 1307 974 1308.393 974 L 1309.786 974 1310.417 972.357 L 1311.047 970.714 1310.774 970.524 L 1310.500 970.333 1308.750 972.167 M 1304.500 975 L 1303.882 976 1304.941 976 L 1306 976 1306 975 L 1306 974 1305.559 974 L 1305.118 974 1304.500 975 M 1300 977 L 1298.500 977.969 1300.250 977.985 L 1302 978 1302 977 L 1302 976 1301.750 976.015 L 1301.500 976.031 1300 977 M 224 1184 L 224 1185 222.632 1185 L 221.263 1185 216.632 1189.632 L 212 1194.263 212 1200.978 L 212 1207.693 213.521 1210.741 L 215.041 1213.790 216.521 1215.017 L 218 1216.245 218 1217.622 L 218 1219 219 1219 L 220 1219 220 1221 L 220 1223 221 1223 L 222 1223 222 1224.633 L 222 1226.265 223.797 1227.883 L 225.593 1229.500 228.393 1235 L 231.192 1240.500 234.470 1246.782 L 237.748 1253.064 239.374 1254.861 L 241 1256.657 241 1257.829 L 241 1259 242 1259 L 243 1259 243 1260.633 L 243 1262.265 244.866 1263.884 L 246.732 1265.502 247.445 1268.751 L 248.159 1272 249.079 1272 L 250 1272 250 1273.779 L 250 1275.558 252 1277 L 254 1278.442 254 1280.221 L 254 1282 254.813 1282 L 255.627 1282 257.019 1285.548 L 258.411 1289.096 259.718 1290.181 L 261.024 1291.265 264.262 1297.725 L 267.500 1304.185 268.487 1306.092 L 269.474 1308 270.237 1308 L 271 1308 271 1310 L 271 1312 272 1312 L 273 1312 273 1313.779 L 273 1315.558 275 1317 L 277 1318.442 277 1320.221 L 277 1322 277.756 1322 L 278.512 1322 279.898 1325.250 L 281.285 1328.500 283.082 1330.500 L 284.879 1332.500 284.875 1333 L 284.871 1333.500 285.584 1335.500 L 286.298 1337.500 288.007 1339.500 L 289.715 1341.500 291.102 1344.750 L 292.488 1348 293.244 1348 L 294 1348 294 1349.779 L 294 1351.558 296 1353 L 298 1354.442 298 1356.221 L 298 1358 298.764 1358 L 299.528 1358 301.325 1361.750 L 303.122 1365.500 306.435 1371.782 L 309.748 1378.064 311.228 1379.782 L 312.709 1381.500 314.099 1384.750 L 315.488 1388 316.244 1388 L 317 1388 317 1389.943 L 317 1391.887 318.866 1393.193 L 320.731 1394.500 321.445 1397.750 L 322.159 1401 323.079 1401 L 324 1401 324 1402.779 L 324 1404.558 326 1406 L 328 1407.442 328 1409.221 L 328 1411 329 1411 L 330 1411 330 1412.378 L 330 1413.755 331.512 1415.010 L 333.024 1416.265 336.076 1422.383 L 339.128 1428.500 341.314 1432.500 L 343.500 1436.500 344.250 1436.833 L 345 1437.167 345 1438.863 L 345 1440.558 347 1442 L 349 1443.442 349 1445.221 L 349 1447 349.756 1447 L 350.512 1447 351.898 1450.250 L 353.285 1453.500 354.993 1455.500 L 356.702 1457.500 357.515 1459.500 L 358.327 1461.500 358.500 1462 L 358.673 1462.500 359.485 1464.500 L 360.298 1466.500 362.007 1468.500 L 363.715 1470.500 365.102 1473.750 L 366.488 1477 367.244 1477 L 368 1477 368 1478.779 L 368 1480.558 370 1482 L 372 1483.442 372 1485.221 L 372 1487 372.764 1487 L 373.528 1487 375.323 1490.750 L 377.117 1494.500 379.420 1498.768 L 381.723 1503.036 383.190 1504.768 L 384.657 1506.500 387.438 1512.323 L 390.219 1518.147 391.609 1518.680 L 393 1519.214 393 1521.107 L 393 1523 394.044 1523 L 395.088 1523 394.886 1524.250 L 394.685 1525.500 395.523 1527.500 L 396.361 1529.500 398.181 1531.117 L 400 1532.735 400 1534.367 L 400 1536 400.756 1536 L 401.512 1536 402.901 1539.250 L 404.291 1542.500 405.772 1544.218 L 407.252 1545.936 410.565 1552.218 L 413.878 1558.500 415.675 1562.250 L 417.472 1566 418.236 1566 L 419 1566 419 1567.779 L 419 1569.558 421 1571 L 423 1572.442 423 1574.221 L 423 1576 424 1576 L 425 1576 425.008 1577.250 L 425.017 1578.500 431.427 1585.250 L 437.838 1592 730.919 1592 L 1024 1592 1024 1387.500 L 1024 1183 624 1183 L 224 1183 224 1184" stroke="none" fill="#1f73ca" fill-rule="evenodd"/></svg>