<svg id="svg" xmlns="http://www.w3.org/2000/svg" xmlns:xlink="http://www.w3.org/1999/xlink" width="400" height="193.2" viewBox="0, 0, 400,193.2"><g id="svgg"><path id="path0" d="M32.800 20.400 C 32.800 20.620,32.498 20.800,32.128 20.800 C 31.162 20.800,28.691 21.714,28.071 22.300 C 27.781 22.575,27.366 22.800,27.149 22.800 C 26.633 22.800,22.800 26.577,22.800 27.085 C 22.800 27.301,22.441 27.891,22.003 28.397 C 20.166 30.514,20.216 28.771,20.092 95.200 C 19.970 160.658,20.017 162.817,21.604 164.404 C 21.998 164.798,22.454 165.539,22.616 166.050 C 23.050 167.418,26.607 170.681,28.317 171.280 C 29.133 171.566,30.025 172.012,30.300 172.271 C 30.575 172.530,31.745 172.853,32.900 172.989 C 38.218 173.614,368.850 173.019,369.332 172.384 C 369.590 172.046,370.565 171.543,371.501 171.268 C 373.190 170.771,376.400 167.950,376.400 166.962 C 376.400 166.700,376.670 166.382,377.000 166.255 C 377.330 166.129,377.600 165.758,377.600 165.432 C 377.600 165.106,377.896 164.674,378.257 164.472 C 379.949 163.525,379.983 162.186,379.985 97.000 C 379.986 33.286,379.917 30.180,378.466 29.227 C 378.275 29.102,377.888 28.561,377.606 28.025 C 377.017 26.909,376.745 26.564,374.751 24.408 C 373.954 23.546,372.829 22.722,372.251 22.577 C 371.673 22.432,371.200 22.153,371.200 21.957 C 371.200 21.760,370.851 21.600,370.424 21.600 C 369.997 21.600,369.536 21.420,369.400 21.200 C 369.264 20.980,368.713 20.800,368.176 20.800 C 367.639 20.800,367.200 20.620,367.200 20.400 C 367.200 20.134,311.200 20.000,200.000 20.000 C 88.800 20.000,32.800 20.134,32.800 20.400 M320.400 96.229 C 320.400 132.293,320.317 138.541,319.829 139.029 C 319.372 139.485,317.680 139.600,311.429 139.600 L 303.600 139.600 303.600 105.400 L 303.600 71.200 295.000 71.200 L 286.400 71.200 286.400 62.867 C 286.400 58.283,286.520 54.413,286.667 54.267 C 286.813 54.120,294.463 54.000,303.667 54.000 L 320.400 54.000 320.400 96.229 M119.200 54.800 C 119.200 55.020,119.772 55.200,120.472 55.200 C 121.695 55.200,124.386 55.958,124.800 56.419 C 124.910 56.541,125.675 56.956,126.500 57.340 C 127.325 57.723,128.000 58.214,128.000 58.429 C 128.000 58.644,128.450 58.991,129.000 59.200 C 129.550 59.409,130.000 59.761,130.000 59.983 C 130.000 60.204,130.616 61.020,131.369 61.795 C 132.121 62.570,132.856 63.742,133.000 64.400 C 133.144 65.057,133.522 65.741,133.840 65.918 C 135.579 66.892,135.555 127.471,133.815 128.139 C 133.540 128.245,133.208 128.860,133.079 129.507 C 132.792 130.940,127.959 136.007,126.100 136.824 C 125.385 137.138,124.800 137.523,124.800 137.679 C 124.800 138.055,122.088 138.795,120.700 138.798 C 120.095 138.799,119.600 138.980,119.600 139.200 C 119.600 139.459,114.467 139.600,105.000 139.600 C 96.801 139.600,90.400 139.445,90.400 139.246 C 90.400 139.051,89.410 138.768,88.200 138.617 C 86.990 138.466,85.735 138.078,85.412 137.755 C 85.088 137.431,84.241 136.964,83.529 136.715 C 82.029 136.192,78.077 132.245,77.750 130.943 C 77.628 130.456,77.302 129.971,77.026 129.865 C 76.750 129.760,76.292 128.577,76.008 127.237 C 75.723 125.896,75.335 124.800,75.145 124.800 C 74.955 124.800,74.800 112.333,74.800 97.000 C 74.800 81.667,74.955 69.200,75.145 69.200 C 75.335 69.200,75.723 68.104,76.008 66.763 C 76.292 65.423,76.750 64.240,77.026 64.135 C 77.302 64.029,77.637 63.505,77.772 62.971 C 77.906 62.437,78.238 62.000,78.510 62.000 C 78.782 62.000,79.240 61.469,79.527 60.819 C 79.815 60.169,80.380 59.533,80.782 59.406 C 81.184 59.278,81.597 58.856,81.698 58.468 C 81.805 58.058,82.578 57.553,83.541 57.265 C 84.454 56.992,85.200 56.632,85.200 56.467 C 85.200 56.123,88.410 55.200,89.606 55.200 C 90.043 55.200,90.400 55.020,90.400 54.800 C 90.400 54.541,95.467 54.400,104.800 54.400 C 114.133 54.400,119.200 54.541,119.200 54.800 M229.800 56.078 C 230.460 56.451,231.720 57.073,232.600 57.460 C 233.480 57.847,234.435 58.487,234.723 58.882 C 235.010 59.277,235.505 59.600,235.823 59.600 C 236.140 59.600,236.400 59.777,236.400 59.993 C 236.400 60.209,237.003 61.006,237.740 61.765 C 238.477 62.524,239.315 63.743,239.602 64.473 C 239.889 65.203,240.370 66.003,240.672 66.252 C 242.448 67.714,242.321 126.936,240.539 128.719 C 240.242 129.015,240.000 129.590,240.000 129.997 C 240.000 130.808,234.625 136.543,233.500 136.933 C 233.115 137.066,232.800 137.332,232.800 137.523 C 232.800 137.715,232.035 138.118,231.100 138.419 C 230.165 138.720,229.272 139.154,229.115 139.383 C 228.667 140.036,195.118 139.955,194.900 139.300 C 194.808 139.025,194.397 138.800,193.985 138.800 C 193.070 138.800,191.200 137.980,191.200 137.579 C 191.200 137.418,190.720 137.166,190.133 137.019 C 189.098 136.759,184.800 132.771,184.800 132.070 C 184.800 131.879,184.470 131.342,184.067 130.878 C 183.664 130.413,183.112 129.039,182.840 127.823 C 182.568 126.608,182.178 125.510,181.973 125.383 C 181.496 125.089,181.469 69.600,181.945 69.600 C 182.135 69.600,182.523 68.504,182.808 67.163 C 183.092 65.823,183.550 64.640,183.826 64.535 C 184.102 64.429,184.437 63.905,184.572 63.371 C 184.706 62.837,185.082 62.400,185.408 62.400 C 185.733 62.400,186.000 62.174,186.000 61.897 C 186.000 61.621,186.630 60.816,187.400 60.110 C 188.170 59.403,188.800 58.676,188.800 58.495 C 188.800 58.314,189.835 57.820,191.100 57.398 C 192.365 56.976,193.503 56.485,193.629 56.307 C 194.542 55.014,227.549 54.806,229.800 56.078 M92.000 72.800 C 92.000 73.020,92.180 73.200,92.400 73.200 C 92.662 73.200,92.800 81.400,92.800 97.000 C 92.800 112.600,92.662 120.800,92.400 120.800 C 92.180 120.800,92.000 120.980,92.000 121.200 C 92.000 121.458,96.533 121.600,104.800 121.600 L 117.600 121.600 117.600 97.000 L 117.600 72.400 104.800 72.400 C 96.533 72.400,92.000 72.542,92.000 72.800 M198.800 73.400 C 198.800 73.730,198.980 74.000,199.200 74.000 C 199.462 74.000,199.600 82.133,199.600 97.600 C 199.600 113.067,199.462 121.200,199.200 121.200 C 198.980 121.200,198.800 121.470,198.800 121.800 C 198.800 122.321,200.489 122.400,211.600 122.400 L 224.400 122.400 224.400 97.600 L 224.400 72.800 211.600 72.800 C 200.489 72.800,198.800 72.879,198.800 73.400 " stroke="none" fill="#000000" fill-rule="evenodd"></path></g></svg>